<svg width="1274" height="1271" viewBox="0 0 1274 1271" fill="none" xmlns="http://www.w3.org/2000/svg">
<path d="M1269.72 565.78C1161.03 311.884 958.119 110.025 703.663 2.64853C693.416 -1.17694 682.075 -0.826745 672.082 3.6231C662.09 8.07294 654.244 16.2672 650.231 26.4431C648.044 31.5352 646.894 37.0119 646.846 42.5533C646.798 48.0948 647.853 53.5899 649.952 58.719C652.05 63.8481 655.149 68.5081 659.067 72.4272C662.985 76.3462 667.644 79.4458 672.773 81.5454C907.327 180.639 1094.36 366.771 1194.58 600.846C1199.06 610.772 1207.24 618.554 1217.38 622.532C1227.52 626.509 1238.81 626.367 1248.84 622.136C1253.98 619.886 1258.62 616.624 1262.47 612.545C1266.32 608.465 1269.31 603.652 1271.25 598.392C1273.2 593.132 1274.07 587.533 1273.81 581.929C1273.54 576.326 1272.15 570.834 1269.72 565.78Z" fill="white"/>
<path d="M651.066 306.968C793.241 366.854 906.664 479.527 967.489 621.303C970.719 628.297 975.821 634.261 982.231 638.534C988.641 642.807 996.108 645.223 1003.81 645.515C1009.44 645.473 1015 644.19 1020.09 641.758C1029.69 637.055 1037.12 628.848 1040.84 618.829C1044.57 608.81 1044.31 597.742 1040.12 587.908C971.179 426.944 842.485 298.998 681.122 230.993C671.185 227.466 660.282 227.829 650.602 232.011C640.923 236.192 633.184 243.882 628.942 253.535C625.017 263.575 625.128 274.744 629.252 284.703C633.376 294.663 641.193 302.641 651.066 306.968V306.968Z" fill="white"/>
<path d="M1053.06 802.89C1044.01 792.313 1032.78 783.822 1020.13 778C1007.48 772.177 993.725 769.162 979.803 769.162C965.88 769.162 952.123 772.177 939.476 778C926.829 783.822 915.594 792.313 906.541 802.89C872.311 836.703 838.081 870.934 804.268 905.582C802.764 907.812 800.825 909.716 798.57 911.181C796.314 912.647 793.786 913.643 791.138 914.11C788.489 914.578 785.772 914.507 783.151 913.903C780.53 913.298 778.059 912.172 775.882 910.591C753.758 898.485 729.963 888.884 708.673 875.526C610.977 812.209 524.381 733.228 452.363 641.758C414.761 597.428 383.694 547.946 360.107 494.817C357.542 490.412 356.678 485.22 357.678 480.222C358.678 475.223 361.472 470.763 365.534 467.683C399.765 434.288 433.16 400.475 466.973 366.245C478.008 357.078 486.889 345.594 492.984 332.607C499.079 319.62 502.239 305.45 502.239 291.105C502.239 276.759 499.079 262.59 492.984 249.603C486.889 236.616 478.008 225.131 466.973 215.965C440.256 188.831 413.54 162.532 386.406 135.398L302.918 51.9096C293.53 41.8513 282.239 33.7569 269.698 28.0959C257.158 22.4348 243.618 19.3196 229.865 18.9312C216.023 19.3874 202.407 22.5727 189.8 28.3035C177.192 34.0344 165.84 42.1981 156.394 52.3268C121.747 86.1397 88.7685 121.205 53.2858 154.6C22.0468 184.063 3.35982 224.429 1.10598 267.311C-1.86774 337.638 10.6742 407.757 37.8412 472.693C89.9079 607.682 164.897 732.665 259.503 842.13C383.922 991.656 538.934 1112.79 714.1 1197.38C791.809 1238.43 876.992 1263.42 964.566 1270.85H980.846C1007.58 1271.98 1034.23 1267.13 1058.86 1256.66C1083.48 1246.19 1105.46 1230.36 1123.19 1210.32C1152.42 1177.34 1185.39 1147.28 1216.7 1115.97C1227.53 1106.76 1236.22 1095.31 1242.19 1082.41C1248.15 1069.51 1251.24 1055.46 1251.24 1041.25C1251.24 1027.04 1248.15 1012.99 1242.19 1000.09C1236.22 987.19 1227.53 975.738 1216.7 966.529C1162.71 911.983 1108.17 857.436 1053.06 802.89ZM1158.26 1057.95L1126.95 1088.84C1105.24 1109.71 1083.12 1130.58 1061.41 1155.21C1051.64 1166.58 1039.33 1175.48 1025.48 1181.21C1011.63 1186.94 996.626 1189.33 981.682 1188.19H969.993C893.204 1181.56 818.531 1159.56 750.417 1123.49C586.087 1043.57 440.545 929.753 323.372 789.533C234.301 687.59 163.671 570.91 114.65 444.724C91.7595 391.245 80.9286 333.38 82.9252 275.242C83.8808 252.904 93.4563 231.807 109.641 216.382C131.348 195.51 151.385 174.638 173.51 153.348L215.254 111.604C216.621 108.781 218.757 106.4 221.415 104.734C224.073 103.068 227.146 102.185 230.283 102.185C233.42 102.185 236.493 103.068 239.151 104.734C241.809 106.4 243.943 108.781 245.31 111.604C263.678 129.554 281.629 147.921 299.579 166.289L327.13 193.84L368.874 235.585L408.531 275.242C423.976 290.687 423.141 293.61 408.531 307.803L394.338 321.996C365.952 351.217 337.148 379.603 307.092 408.824C291.396 423.733 280.747 443.172 276.631 464.425C272.515 485.679 275.138 507.687 284.133 527.378C310.48 587.887 345.649 644.158 388.494 694.355C466.51 792.497 560.157 877.118 665.676 944.822C681.957 954.84 698.655 963.189 713.266 970.286L735.807 981.557C751.748 990.971 769.892 996.01 788.405 996.167C802.82 996.094 817.061 993.012 830.216 987.118C843.37 981.223 855.148 972.647 864.797 961.937C897.775 928.124 931.171 895.146 966.236 860.498C969.806 855.848 974.785 852.48 980.429 850.897C986.266 852.306 991.431 855.7 995.04 860.498C1050.7 916.157 1106.36 970.842 1162.02 1024.55C1171.62 1039.16 1172.87 1042.92 1158.26 1057.95V1057.95Z" fill="white"/>
</svg>
