<svg width="1336" height="1253" viewBox="0 0 1336 1253" fill="none" xmlns="http://www.w3.org/2000/svg">
<path d="M1168.84 0.668945H166.978C122.692 0.668945 80.2208 18.261 48.9065 49.5754C17.5921 80.8898 0 123.361 0 167.646V793.812C0 838.097 17.5921 880.569 48.9065 911.883C80.2208 943.198 122.692 960.79 166.978 960.79H292.211V1211.26C292.191 1219.24 294.462 1227.06 298.753 1233.8C303.044 1240.53 309.176 1245.89 316.422 1249.24C321.949 1251.68 327.916 1252.96 333.955 1253C344.102 1252.99 353.896 1249.28 361.506 1242.56L683.355 960.79H1168.84C1213.13 960.79 1255.6 943.198 1286.91 911.883C1318.23 880.569 1335.82 838.097 1335.82 793.812V167.646C1335.82 123.361 1318.23 80.8898 1286.91 49.5754C1255.6 18.261 1213.13 0.668945 1168.84 0.668945ZM1252.33 793.812C1252.33 815.955 1243.54 837.19 1227.88 852.848C1212.22 868.505 1190.99 877.301 1168.84 877.301H667.91C657.763 877.315 647.969 881.025 640.359 887.737L375.699 1119.42V919.045C375.699 907.974 371.301 897.356 363.473 889.527C355.644 881.699 345.026 877.301 333.955 877.301H166.978C144.835 877.301 123.599 868.505 107.942 852.848C92.2848 837.19 83.4888 815.955 83.4888 793.812V167.646C83.4888 145.504 92.2848 124.268 107.942 108.611C123.599 92.9537 144.835 84.1577 166.978 84.1577H1168.84C1190.99 84.1577 1212.22 92.9537 1227.88 108.611C1243.54 124.268 1252.33 145.504 1252.33 167.646V793.812Z" fill="white"/>
<path d="M876.632 543.343H500.932C489.861 543.343 479.243 547.741 471.415 555.57C463.586 563.398 459.188 574.016 459.188 585.088C459.188 596.159 463.586 606.777 471.415 614.605C479.243 622.434 489.861 626.832 500.932 626.832H876.632C887.703 626.832 898.321 622.434 906.15 614.605C913.978 606.777 918.376 596.159 918.376 585.088C918.376 574.016 913.978 563.398 906.15 555.57C898.321 547.741 887.703 543.343 876.632 543.343Z" fill="white"/>
<path d="M876.632 334.622H500.932C489.861 334.622 479.243 339.02 471.415 346.849C463.586 354.677 459.188 365.295 459.188 376.366C459.188 387.438 463.586 398.056 471.415 405.884C479.243 413.713 489.861 418.111 500.932 418.111H876.632C887.703 418.111 898.321 413.713 906.15 405.884C913.978 398.056 918.376 387.438 918.376 376.366C918.376 365.295 913.978 354.677 906.15 346.849C898.321 339.02 887.703 334.622 876.632 334.622Z" fill="white"/>
</svg>
