<svg width="4476" height="662" viewBox="0 0 4476 662" fill="none" xmlns="http://www.w3.org/2000/svg">
<path d="M1717.67 31L1792.28 95.389H1829.58L1884.76 31L1934.49 61.2551L2009.1 41.085L2001.33 152.796H2051.06L2065.83 224.943L2031.64 304.847L2100.8 334.327L2128 538.355H1981.12L1961.69 588.004H1854.45L1804.71 553.094L1690.47 605.071L1653.17 567.834V470.862L1615.87 418.886L1653.17 334.327V249.768L1591 224.943V95.389L1717.67 31Z" stroke="#171717" stroke-width="3"/>
<path d="M1831.43 294.21L1844.92 287.319H1862.72L1875.14 300.353L1878.36 316.624L1885.73 319.779L1888.63 341.612H1872.98L1854.19 343.189L1842.03 348.751L1838.05 344.767V334.389V310.73L1831.43 308.073V294.21Z" stroke="#171717" stroke-width="3"/>
<path d="M1726.94 50.7168L1796.33 109.888H1832.13L1883.54 50.9531L1929.93 79.3821L1998.92 61.3894L1991.87 165.133L2038.35 165.376L2052.09 232.813L2020.63 307.41L2083.88 334.622L2108.38 522.955L1972.08 523.016L1953.42 568.907L1853.49 569.335L1807.43 536.957L1701.83 584.782L1667.39 550.011V460.099L1632.96 410.301L1667.14 332.144L1666.88 253.988L1609.49 230.539V110.418L1726.94 50.7168Z" stroke="#171717" stroke-width="3"/>
<path d="M1736.21 70.4341L1800.38 124.387H1834.68L1882.32 70.9066L1925.36 97.5097L1988.74 81.6943L1982.41 177.471L2025.63 177.956L2038.34 240.683L2009.63 309.974L2066.95 334.918L2088.77 507.557L1963.04 507.678L1945.15 549.811L1852.54 550.666L1810.15 520.821L1713.18 564.494L1681.61 532.188V449.337L1650.05 401.717L1681.1 329.962L1680.6 258.208L1627.99 236.136V125.447L1736.21 70.4341Z" stroke="#171717" stroke-width="3"/>
<path d="M1745.48 90.1509L1804.43 138.886H1837.23L1881.1 90.8597L1920.8 115.637L1978.56 101.999L1972.95 189.808L2012.91 190.536L2024.6 248.553L1998.63 312.537L2050.03 335.213L2069.15 492.158L1954 492.34L1936.89 530.714L1851.58 531.997L1812.86 504.684L1724.53 544.206L1695.84 514.365V438.574L1667.14 393.132L1695.07 327.78L1694.31 262.428L1646.48 241.732V140.476L1745.48 90.1509Z" stroke="#171717" stroke-width="3"/>
<path d="M1754.75 109.867L1808.48 153.384H1839.78L1879.89 110.812L1916.23 133.763L1968.38 122.303L1963.49 202.144L2000.19 203.115L2010.86 256.422L1987.63 315.099L2033.11 335.508L2049.53 476.758L1944.96 477.001L1928.62 511.616L1850.63 513.327L1815.58 488.546L1735.88 523.917L1710.06 496.541V427.81L1684.23 384.547L1709.04 325.597L1708.02 266.647L1664.98 247.328V155.504L1754.75 109.867Z" stroke="#171717" stroke-width="3"/>
<path d="M1764.02 129.584L1812.53 167.883H1842.33L1878.67 130.766L1911.66 151.891L1958.2 142.608L1954.03 214.482L1987.47 215.695L1997.12 264.292L1976.63 317.663L2016.19 335.804L2029.92 461.359L1935.92 461.663L1920.35 492.52L1849.67 494.659L1818.3 472.41L1747.23 503.629L1724.28 478.718V417.048L1701.32 375.962L1723.01 323.415L1721.73 270.868L1683.47 252.925V170.534L1764.02 129.584Z" stroke="#171717" stroke-width="3"/>
<path d="M1773.29 149.301L1816.58 182.382H1844.88L1877.45 150.719L1907.1 170.018L1948.01 162.912L1944.57 226.819L1974.76 228.275L1983.38 272.162L1965.63 320.226L1999.26 336.099L2010.3 445.96L1926.88 446.324L1912.08 473.423L1848.72 475.99L1821.02 456.273L1758.59 483.34L1738.5 460.895V406.285L1718.42 367.378L1736.97 321.233L1735.45 275.088L1701.97 258.521V185.562L1773.29 149.301Z" stroke="#171717" stroke-width="3"/>
<path d="M1782.56 169.018L1820.63 196.881H1847.42L1876.23 170.672L1902.53 188.145L1937.83 183.216L1935.12 239.156L1962.04 240.855L1969.63 280.031L1954.63 322.789L1982.34 336.394L1990.68 430.561L1917.83 430.986L1903.81 454.326L1847.76 457.321L1823.73 440.136L1769.94 463.052L1752.72 443.072V395.522L1735.51 358.793L1750.94 319.05L1749.16 279.308L1720.46 264.118V200.591L1782.56 169.018Z" stroke="#171717" stroke-width="3"/>
<path d="M1791.83 188.735L1824.68 211.38H1849.97L1875.02 190.625L1897.97 206.272L1927.65 203.521L1925.66 251.493L1949.32 253.434L1955.89 287.901L1943.63 325.351L1965.42 336.69L1971.07 415.162L1908.79 415.647L1895.54 435.229L1846.8 438.651L1826.45 423.998L1781.29 442.763L1766.94 425.249V384.759L1752.6 350.208L1764.91 316.868L1762.87 283.528L1738.96 269.714V215.62L1791.83 188.735Z" stroke="#171717" stroke-width="3"/>
<path d="M1801.1 208.452L1828.72 225.879H1852.52L1873.8 210.579L1893.4 224.4L1917.47 223.826L1916.2 263.831L1936.6 266.015L1942.15 295.771L1932.63 327.915L1948.5 336.985L1951.45 399.763L1899.75 400.309L1887.27 416.132L1845.85 419.983L1829.17 407.862L1792.64 422.475L1781.17 407.426V373.996L1769.69 341.624L1778.87 314.686L1776.58 287.748L1757.45 275.311V230.649L1801.1 208.452Z" stroke="#171717" stroke-width="3"/>
<path d="M1810.37 228.169L1832.77 240.378H1855.07L1872.58 230.532L1888.83 242.527L1907.29 244.13L1906.74 276.168L1923.88 278.594L1928.41 303.641L1921.63 330.478L1931.57 337.281L1931.83 384.364L1890.71 384.971L1879 397.035L1844.89 401.314L1831.89 391.725L1804 402.187L1795.39 389.603V363.233L1786.78 333.039L1792.84 312.504L1790.29 291.968L1775.95 280.907V245.678L1810.37 228.169Z" stroke="#171717" stroke-width="3"/>
<path d="M1819.64 247.886L1836.82 254.877H1857.62L1871.36 250.485L1884.27 260.654L1897.11 264.434L1897.28 288.505L1911.17 291.174L1914.66 311.511L1910.63 333.041L1914.65 337.576L1912.22 368.965L1881.67 369.632L1870.73 377.938L1843.94 382.644L1834.61 375.588L1815.35 381.898L1809.61 371.779V352.47L1803.87 324.454L1806.81 310.321L1804.01 296.188L1794.44 286.504V260.707L1819.64 247.886Z" stroke="#171717" stroke-width="3"/>
<path d="M1828.91 267.603L1840.87 269.376H1860.17L1870.15 270.438L1879.7 278.781L1886.93 284.739L1887.82 300.842L1898.45 303.754L1900.92 319.381L1899.63 335.604L1897.73 337.872L1892.6 353.566L1872.63 354.294L1862.46 358.842L1842.98 363.976L1837.32 359.451L1826.7 361.61L1823.83 353.957V341.708L1820.96 315.87L1820.78 308.139L1817.72 300.409L1812.94 292.1V275.736L1828.91 267.603Z" stroke="#171717" stroke-width="3"/>
<path d="M9.17712 185.687C-33.7781 30.0306 125.344 14.1867 240.177 61.1867C307.177 85.3582 351.177 10.1867 434.177 40.1867C517.177 70.1867 417.678 164.687 544.678 213.187C671.678 261.687 609.677 478.687 498.677 481.187C387.677 483.687 418.177 520.187 307.177 603.687C196.177 687.187 9.17738 571.187 55.6773 448.687C102.177 326.187 55.6768 354.187 9.17712 185.687Z" stroke="#171717" stroke-width="3"/>
<path d="M248.075 306.825C243.119 292 266.333 268.083 285 278.29C302.093 287.637 319.5 281.333 331 285.5C361.275 296.47 350.139 302.277 363.673 315.305C380.141 331.16 388 372.675 350.139 372.675C319 372.675 328.317 387.799 305 394.5C281.683 401.201 255.24 389.794 255.24 359.763C255.24 348.485 256.33 331.517 248.075 306.825Z" stroke="#171717" stroke-width="3"/>
<path d="M30.8921 195.943C-8.60862 53.0895 138.158 36.5117 244.249 80.1669C306.712 102.991 348.295 34.0799 424.795 61.7314C503.001 90.0014 411.535 176.438 528.22 221.714C645.171 267.246 589.522 468.293 485.171 470.565C381.431 472.838 410.005 507.395 306.976 583.913C203.948 660.432 31.5436 553.94 73.8163 439.846C116.089 327.457 73.915 351.369 30.8921 195.943Z" stroke="#171717" stroke-width="3"/>
<path d="M52.6072 206.2C16.5609 76.1494 150.973 58.8377 248.321 99.148C306.247 120.624 345.412 57.974 415.412 83.2771C488.826 109.817 405.392 188.191 511.762 230.242C618.665 272.806 569.366 457.9 471.664 459.945C375.185 461.991 401.833 494.604 306.775 564.141C211.718 633.677 53.91 536.694 91.9554 431.007C130.001 328.729 92.1533 348.553 52.6072 206.2Z" stroke="#171717" stroke-width="3"/>
<path d="M74.3225 216.457C41.7306 99.2098 163.787 81.1642 252.393 118.13C305.782 138.258 342.529 81.8687 406.029 104.823C474.65 129.633 399.249 199.944 495.304 238.77C592.159 278.367 549.211 447.507 458.158 449.325C368.938 451.144 393.661 481.814 306.575 544.369C219.488 606.924 76.2765 519.449 110.095 422.168C143.913 330.001 110.392 345.737 74.3225 216.457Z" stroke="#171717" stroke-width="3"/>
<path d="M96.0379 226.715C66.9005 122.271 176.602 103.491 256.465 137.112C305.317 155.892 339.647 105.764 396.647 126.37C460.474 149.45 393.107 211.698 478.846 247.299C565.653 283.928 529.056 437.115 444.652 438.706C362.692 440.297 385.49 469.024 306.374 524.597C227.259 580.17 98.6432 502.204 128.234 413.329C157.825 331.273 128.63 342.922 96.0379 226.715Z" stroke="#171717" stroke-width="3"/>
<path d="M117.754 237.493C92.0706 145.851 189.416 126.337 260.538 156.613C304.853 174.046 336.765 130.178 387.265 148.436C446.299 169.786 386.964 223.971 462.389 256.348C539.147 290.009 508.901 427.243 431.146 428.606C356.447 429.97 377.318 456.754 306.174 505.345C235.03 553.937 121.01 485.479 146.374 405.01C171.737 333.065 146.869 340.626 117.754 237.493Z" stroke="#171717" stroke-width="3"/>
<path d="M139.47 248.886C117.241 170.047 202.232 149.799 264.61 176.731C304.389 192.816 333.883 155.209 377.883 171.118C432.124 190.738 380.823 236.86 445.932 266.012C512.642 296.705 488.747 417.986 417.641 419.122C350.201 420.258 369.147 445.099 305.974 486.709C242.801 528.318 143.377 469.369 164.514 397.306C185.65 335.473 165.108 338.945 139.47 248.886Z" stroke="#171717" stroke-width="3"/>
<path d="M161.186 260.313C142.412 194.276 215.047 173.295 268.684 196.881C303.925 211.619 331.002 180.272 368.502 193.833C417.95 211.723 374.681 249.782 429.475 275.709C486.137 303.435 468.593 408.762 404.136 409.671C343.956 410.58 360.976 433.477 305.775 468.106C250.573 502.734 165.745 453.293 182.654 389.636C199.563 337.914 183.348 337.299 161.186 260.313Z" stroke="#171717" stroke-width="3"/>
<path d="M182.904 271.788C167.584 218.555 227.864 196.839 272.758 217.081C303.462 230.471 328.121 205.385 359.121 216.597C403.776 232.757 368.541 262.753 413.02 285.456C459.633 310.213 448.44 399.588 390.632 400.27C337.712 400.952 352.807 421.905 305.576 449.552C258.345 477.198 188.114 437.266 200.796 382.016C213.478 340.404 201.589 335.701 182.904 271.788Z" stroke="#171717" stroke-width="3"/>
<path d="M204.622 283.337C192.757 242.906 240.682 220.457 276.834 237.354C303.001 249.396 325.243 230.571 349.743 239.435C389.604 253.865 362.402 275.797 396.566 295.275C433.131 317.065 428.288 390.487 377.129 390.941C331.47 391.396 344.638 410.406 305.379 431.071C266.12 451.735 210.484 421.312 218.939 374.468C227.393 342.968 219.831 334.176 204.622 283.337Z" stroke="#171717" stroke-width="3"/>
<path d="M226.345 294.996C217.934 267.368 253.504 244.185 280.913 257.737C302.543 268.431 322.367 255.867 340.367 262.382C375.435 275.082 356.266 288.952 380.115 305.205C406.632 324.027 408.14 381.495 363.63 381.723C325.231 381.95 336.474 399.017 305.185 412.7C273.897 426.383 232.858 405.468 237.085 367.03C241.312 345.641 238.076 332.762 226.345 294.996Z" stroke="#171717" stroke-width="3"/>
<path d="M992.605 40.9451C975.46 -3.66423 890.637 -25.6931 904.634 63.1279C906.929 77.6916 907.16 102.769 904.634 133.293C902.32 161.255 857.021 176.555 843.116 212.685C821.309 269.347 902.845 308.842 889.87 338.628C872.875 377.641 820.839 394.567 792.056 415.911C764.96 436.004 747.701 468.244 741.074 501.39C729.448 559.541 750.547 620.481 808.666 623.513C837.76 625.031 876.132 612.037 924.32 576.918C945.865 561.216 964.863 548.275 981.747 537.812C1025.2 510.881 1013.52 574.583 1065.2 576.918C1094.64 578.248 1125.39 523.253 1148.67 552.588C1165.23 573.446 1184.22 598.755 1211.35 624.774C1258.99 670.469 1318.56 677.196 1326.98 611.981C1330.96 581.196 1323.54 534.379 1298.09 468.061C1281.81 425.622 1322.31 427.118 1326.98 372.733C1331.65 318.349 1293.48 293.268 1321.11 270.76L1321.66 270.309C1342.72 253.154 1365.18 234.858 1377.45 199.717C1388.02 169.446 1387.01 139.465 1377.45 116.428C1367.22 91.7724 1347.21 75.0702 1321.11 74.4778C1294.93 73.8833 1262.63 89.5075 1227.96 129.59C1205.1 156.017 1189.62 94.5252 1148.67 100.811C1107.72 107.097 1102.03 166.428 1077.5 149.22C1034.89 119.327 1012.69 93.1904 992.605 40.9451Z" stroke="#171717" stroke-width="3"/>
<path d="M1075.32 284.279C1072.71 277.43 1060.55 279.228 1059.93 286.65C1059.23 295.1 1063.51 306.112 1063.01 314.583C1062.06 330.938 1056.28 335.593 1044.78 344.213C1040.65 347.298 1038.03 352.247 1037.02 357.336C1035.25 366.263 1038.46 375.618 1047.3 376.084C1051.73 376.317 1057.57 374.322 1064.9 368.931C1068.18 366.52 1071.07 364.534 1073.64 362.927C1084.83 355.375 1095.24 361.293 1099.05 365.196C1101.57 368.398 1104.46 372.283 1108.59 376.277C1115.84 383.292 1126.82 382.373 1126.18 374.313C1125.29 362.927 1105.85 320.426 1126.18 313.015C1135.63 309.572 1135.32 301.774 1133.86 298.238C1132.31 294.453 1129.26 291.889 1125.29 291.798C1121.31 291.706 1114.71 298.238 1111.11 300.258C1097.86 307.718 1086.03 311.573 1075.32 284.279Z" stroke="#171717" stroke-width="3"/>
<path d="M918.817 82.5608C906.394 1.70281 983.908 21.859 999.627 62.7544C1018.87 112.751 1040.15 136.183 1080.13 162.707C1102.61 178.272 1108.02 124.098 1145.52 118.21C1183.01 112.322 1197.34 168.123 1218.32 144.083C1250.22 107.624 1279.89 93.6402 1303.85 94.5226C1327.66 95.2212 1345.91 110.673 1355.13 133.359C1363.75 154.574 1364.46 182.105 1354.41 209.801C1341.31 242.722 1322.38 263.213 1303.15 279.968C1278.04 300.81 1312.53 323.832 1307.96 373.344C1303.39 422.856 1266.12 421.358 1280.61 459.654C1303.39 519.63 1309.87 561.875 1306.03 589.595C1298.19 648.753 1243.67 642.41 1199.91 600.744C1174.82 576.979 1157.05 553.99 1141.48 535.353C1120.06 508.809 1091.82 559.023 1064.73 558.03C1017.38 556.15 1027.71 498.359 987.901 522.964C972.272 532.587 954.752 544.4 934.948 558.676C890.298 590.586 855.093 601.564 828.782 599.378C775.946 596.39 756.831 540.719 767.528 487.608C773.676 457.247 789.533 427.734 814.374 409.313C841.609 389.117 889.482 373.296 905.031 336.326C916.86 308.844 842.586 272.472 862.344 220.48C874.913 187.169 916.048 172.81 918.185 146.988C920.511 118.882 920.592 95.8581 918.817 82.5608Z" stroke="#171717" stroke-width="3"/>
<path d="M933.635 102.812C922.806 30.1824 992.898 48.3997 1007.17 85.4463C1025.55 133.025 1045.87 153.676 1083.15 176.746C1103.56 190.617 1108.68 141.779 1142.67 136.308C1176.65 130.838 1189.8 180.765 1208.87 159.192C1237.97 126.475 1264.96 114.177 1286.67 115.343C1308.15 116.145 1324.62 130.295 1332.82 150.938C1340.47 170.26 1340.88 195.25 1331.38 220.28C1317.56 250.564 1302.47 273.164 1285.27 289.33C1262.72 308.437 1293.48 329.323 1289.01 373.801C1284.54 418.28 1250.56 416.783 1263.23 450.811C1283.31 504.25 1288.85 541.784 1285.14 566.349C1277.9 619.256 1228.5 613.32 1188.7 575.819C1165.68 554.386 1149.16 533.791 1134.59 517.437C1115.07 493.77 1089.38 539.039 1064.68 538.387C1021.72 536.965 1030.69 485.275 994.589 507.474C980.238 516.225 964.223 526.872 946.188 539.674C905.142 568.271 873.154 577.198 849.664 574.352C802.19 571.418 785.087 521.199 794.838 473.304C800.498 445.828 814.93 419.138 837.481 402.451C863.129 383.469 906.767 368.808 920.849 334.005C931.513 308.917 864.61 275.787 882.291 228.638C893.504 198.256 930.415 184.885 932.373 161.29C934.496 135.694 934.888 114.8 933.635 102.812Z" stroke="#171717" stroke-width="3"/>
<path d="M947.814 122.246C938.56 57.5796 1001.34 73.9241 1014.18 107.257C1031.73 152.586 1051.12 170.532 1085.77 190.233C1104.13 202.461 1108.97 158.781 1139.5 153.708C1170.03 148.635 1182.02 192.872 1199.21 173.686C1225.54 144.592 1249.9 133.934 1269.39 135.389C1288.59 136.297 1303.29 149.196 1310.48 167.87C1317.19 185.368 1317.3 207.908 1308.32 230.364C1293.76 258.119 1282.5 282.902 1267.29 298.536C1247.26 315.977 1274.35 334.803 1269.97 374.409C1265.6 414.015 1234.85 412.517 1245.72 442.4C1263.13 489.499 1267.74 522.46 1264.16 543.96C1257.5 590.81 1213.16 585.259 1177.24 551.787C1156.26 532.608 1140.96 514.332 1127.38 500.199C1109.72 479.323 1086.54 519.812 1064.2 519.496C1025.57 518.529 1033.18 472.75 1000.73 492.624C987.635 500.534 973.099 510.054 956.805 521.429C919.299 546.817 890.48 553.729 869.776 550.214C827.589 547.324 812.473 502.375 821.294 459.52C826.474 434.83 839.503 410.865 859.798 395.852C883.899 378.017 923.37 364.463 936.006 331.702C945.523 308.919 885.888 278.912 901.518 236.433C911.393 208.87 944.137 196.441 945.918 174.985C947.841 151.808 948.545 132.967 947.814 122.246Z" stroke="#171717" stroke-width="3"/>
<path d="M962.626 141.679C954.965 84.9782 1010.32 99.4496 1021.71 129.067C1038.39 172.151 1056.83 187.39 1088.78 203.72C1105.06 214.305 1109.61 175.784 1136.63 171.109C1163.65 166.433 1174.46 204.977 1189.74 188.179C1213.26 162.709 1234.94 153.693 1252.17 155.436C1269.05 156.451 1281.96 168.099 1288.14 184.804C1293.89 200.479 1293.7 220.568 1285.25 240.449C1269.98 265.676 1262.57 292.649 1249.38 307.753C1231.9 323.528 1255.26 340.295 1250.99 375.027C1246.72 409.76 1219.27 408.258 1228.32 433.996C1243.02 474.751 1246.7 503.138 1243.25 521.571C1237.19 562.361 1197.97 557.195 1166.01 527.752C1147.11 510.828 1133.05 494.873 1120.47 482.963C1104.72 464.878 1084.08 500.585 1064.14 500.608C1029.91 500.095 1036.15 460.229 1007.41 477.777C995.594 484.847 982.564 493.239 968.04 503.187C934.14 525.364 908.54 530.258 890.658 526.074C853.835 523.227 840.731 483.549 848.606 445.735C853.298 423.831 864.901 402.594 882.904 389.254C905.415 372.565 940.65 360.117 951.818 329.397C960.169 308.919 907.909 282.034 921.46 244.227C929.98 219.483 958.499 207.994 960.1 188.679C961.82 167.92 962.835 151.133 962.626 141.679Z" stroke="#171717" stroke-width="3"/>
<path d="M977.431 162.027C971.363 113.418 1019.29 125.984 1029.23 151.821C1045.04 192.561 1062.52 205.06 1091.78 217.983C1105.97 226.9 1110.23 193.624 1133.73 189.357C1157.24 185.091 1166.88 217.856 1180.25 203.483C1200.96 181.694 1219.95 174.339 1234.93 176.367C1249.49 177.485 1260.61 187.857 1265.76 202.555C1270.56 216.372 1270.07 233.966 1262.16 251.227C1246.18 273.869 1242.61 302.97 1231.45 317.51C1216.53 331.582 1236.16 346.252 1231.99 376.033C1227.83 405.815 1203.67 404.314 1210.9 425.849C1222.9 460.169 1225.63 483.918 1222.32 499.243C1216.86 533.883 1182.77 529.114 1154.76 503.767C1137.94 489.135 1125.13 475.535 1113.56 465.875C1099.7 450.622 1081.62 481.468 1064.08 481.828C1034.24 481.77 1039.11 447.907 1014.09 463.089C1003.55 469.303 992.026 476.549 979.273 485.048C948.982 503.965 926.602 506.831 911.543 501.986C880.083 499.19 868.992 464.871 875.921 432.183C880.123 413.114 890.3 394.652 906.01 383.014C926.929 367.51 957.925 356.196 967.625 327.587C974.811 309.458 929.926 285.756 941.399 252.705C948.563 230.837 972.856 220.314 974.277 203.183C975.794 184.889 977.119 170.193 977.431 162.027Z" stroke="#171717" stroke-width="3"/>
<path d="M991.595 181.46C987.107 140.821 1027.71 151.513 1036.22 173.634C1051.19 212.132 1067.75 221.922 1094.36 231.471C1106.5 238.744 1110.48 210.629 1130.53 206.76C1150.57 202.89 1159.06 229.959 1170.54 217.977C1188.48 199.814 1204.83 194.101 1217.59 196.418C1229.86 197.644 1239.2 206.765 1243.35 219.493C1247.2 231.486 1246.41 246.628 1239.03 261.313C1222.3 281.428 1222.56 312.728 1213.4 326.739C1201 339.146 1216.95 351.755 1212.88 376.66C1208.81 401.566 1187.9 400.062 1193.33 417.448C1202.65 445.421 1204.45 464.592 1201.26 476.848C1196.39 505.424 1167.36 501.04 1143.24 479.725C1128.46 467.349 1116.87 456.071 1106.29 448.635C1094.3 436.175 1078.74 462.237 1063.55 462.936C1038.05 463.333 1041.56 435.388 1020.2 448.243C1010.92 453.615 1000.88 459.733 989.868 466.804C963.123 482.51 943.917 483.355 931.648 477.838C905.486 475.084 896.385 446.038 902.382 418.395C906.104 402.113 914.876 386.378 928.326 376.415C947.696 362.056 974.519 351.847 982.769 325.277C988.806 309.453 951.202 288.875 960.62 260.497C966.444 241.448 986.562 231.865 987.806 216.876C989.123 201 990.761 188.359 991.595 181.46Z" stroke="#171717" stroke-width="3"/>
<path d="M1006.38 200.892C1003.49 168.229 1036.65 177.046 1043.71 195.449C1057.81 231.713 1073.39 238.791 1097.3 244.96C1107.36 250.586 1111.04 227.637 1127.57 224.165C1144.1 220.693 1151.4 242.06 1160.98 232.469C1176.09 217.935 1189.77 213.867 1200.27 216.475C1210.21 217.808 1217.76 225.678 1220.89 236.437C1223.78 246.606 1222.69 259.295 1215.85 271.402C1198.44 288.99 1202.53 322.507 1195.39 335.993C1185.55 346.733 1197.77 357.282 1193.81 377.307C1189.84 397.332 1172.23 395.825 1175.84 409.058C1182.46 430.676 1183.32 445.264 1180.27 454.448C1176 476.956 1152.1 472.955 1131.95 455.675C1119.25 445.556 1108.91 436.601 1099.34 431.394C1089.25 421.73 1076.24 443.005 1063.46 444.044C1042.36 444.897 1044.51 422.874 1026.86 433.4C1018.86 437.932 1010.33 442.921 1001.09 448.563C977.965 461.054 961.983 459.873 952.537 453.68C931.742 450.969 924.655 427.2 929.704 404.604C932.936 391.11 940.279 378.105 951.434 369.816C969.203 356.6 991.781 347.496 998.561 322.961C1003.43 309.442 973.208 291.988 980.548 268.285C985.016 252.057 1000.91 243.413 1001.97 230.564C1003.08 217.108 1005.03 206.523 1006.38 200.892Z" stroke="#171717" stroke-width="3"/>
<path d="M1020.76 220.322C1019.44 195.646 1045.35 202.586 1050.99 217.268C1064.3 251.309 1079 255.67 1100.34 258.451C1108.36 262.428 1111.78 244.649 1124.88 241.574C1137.98 238.498 1144.15 254.156 1151.86 246.959C1164.24 236.059 1175.31 233.64 1183.61 236.541C1191.28 237.983 1197.08 244.602 1199.21 253.389C1201.15 261.733 1199.76 271.969 1193.42 281.496C1175.2 296.556 1183.16 332.315 1178 345.283C1170.67 354.356 1179.23 362.842 1175.35 377.981C1171.46 393.12 1157.05 391.608 1158.87 400.681C1162.82 415.934 1162.74 425.931 1159.81 432.037C1156.12 448.466 1137.22 444.849 1120.92 431.608C1110.23 423.749 1101.09 417.121 1092.48 414.147C1084.23 407.284 1073.71 423.766 1063.26 425.146C1046.44 426.458 1047.24 410.367 1033.2 418.562L1032.81 418.775C1026.17 422.4 1019.23 426.192 1011.86 430.322C992.221 439.593 979.377 436.379 972.705 429.505C957.167 426.834 952.056 408.347 956.185 390.804C958.945 380.101 964.9 369.828 973.82 363.215C990.09 351.139 1008.55 343.14 1013.89 320.633C1017.62 309.42 994.621 295.091 999.919 276.067C1003.05 262.661 1014.8 254.954 1015.69 244.248C1016.61 233.212 1018.87 224.684 1020.76 220.322Z" stroke="#171717" stroke-width="3"/>
<path d="M1035.51 240.695C1035.78 224.113 1054.23 229.146 1058.42 240.042C1070.83 271.707 1084.55 273.332 1103.15 272.713C1109.08 275.024 1112.2 262.494 1121.77 259.829C1131.35 257.164 1136.33 267.044 1142.12 262.273C1151.67 255.055 1160.04 254.294 1166.08 257.476C1171.42 259.019 1175.42 264.358 1176.53 271.135C1177.51 277.617 1175.83 285.353 1170.04 292.257C1151.15 304.723 1162.92 342.561 1159.79 354.95C1155.02 362.317 1159.85 368.702 1156.08 378.889C1152.31 389.075 1141.21 387.566 1141.2 392.439C1142.46 401.26 1141.44 406.623 1138.66 409.624C1135.56 419.903 1121.82 416.686 1109.49 407.542C1100.89 401.978 1093.02 397.706 1085.43 396.977C1079.1 392.944 1071.14 404.562 1063.1 406.277C1050.7 408.041 1050.13 397.952 1039.83 403.779C1034.36 406.611 1028.8 409.323 1023.07 412.085C1007.07 418.096 997.461 412.864 993.617 405.34C983.457 402.723 980.363 389.599 983.54 377.186C985.808 369.322 990.328 361.826 996.944 356.918C1011.59 346.037 1025.79 339.178 1029.66 318.801C1032.22 309.944 1016.62 298.805 1019.83 284.544C1021.61 274.018 1029.12 267.285 1029.83 258.767C1030.54 250.201 1033.11 243.768 1035.51 240.695Z" stroke="#171717" stroke-width="3"/>
<path d="M1050.48 260.152C1052.33 251.607 1063.38 254.749 1066.12 261.892C1077.67 291.252 1090.42 290.152 1106.32 286.144C1110.17 286.797 1113 279.476 1119.08 277.214C1125.15 274.953 1128.96 279.092 1132.84 276.731C1139.59 273.168 1145.29 274.06 1149.08 277.527C1152.11 279.175 1154.33 283.249 1154.42 288.035C1154.45 292.673 1152.47 297.933 1147.23 302.237C1127.65 312.142 1143.23 352.129 1142.11 363.967C1139.89 369.647 1141.01 373.951 1137.34 379.221C1133.68 384.49 1125.86 382.98 1124.05 383.676C1122.61 386.104 1120.66 386.857 1118.02 386.768C1115.52 390.938 1106.89 388.112 1098.5 383.035C1091.98 379.747 1085.35 377.815 1078.77 379.323C1074.33 378.105 1068.91 384.896 1063.26 386.948C1055.24 389.167 1053.32 385.04 1046.71 388.52C1042.52 390.502 1038.46 392.076 1034.5 393.398C1022.1 396.171 1015.7 388.917 1014.66 380.73C1009.85 378.16 1008.75 370.357 1010.99 363.033C1012.77 357.983 1015.87 353.241 1020.2 350.023C1033.25 340.311 1043.22 334.574 1045.63 316.28C1047.03 309.753 1038.77 301.771 1039.92 292.23C1040.35 284.556 1043.65 278.778 1044.18 272.426C1044.68 266.304 1047.56 261.946 1050.48 260.152Z" stroke="#171717" stroke-width="3"/>
<path d="M4063.67 31L4138.28 95.389H4175.58L4230.76 31L4280.49 61.2551L4355.1 41.085L4347.33 152.796H4397.06L4411.83 224.943L4377.64 304.847L4446.8 334.327L4474 538.355H4327.12L4307.69 588.004H4200.45L4150.71 553.094L4036.47 605.071L3999.17 567.834V470.862L3961.87 418.886L3999.17 334.327V249.768L3937 224.943V95.389L4063.67 31Z" stroke="#171717" stroke-width="3"/>
<path d="M4177.43 294.21L4190.92 287.319H4208.72L4221.14 300.353L4224.36 316.624L4231.73 319.779L4234.63 341.612H4218.98L4200.19 343.189L4188.03 348.751L4184.05 344.767V334.389V310.73L4177.43 308.073V294.21Z" stroke="#171717" stroke-width="3"/>
<path d="M4072.94 50.7168L4142.33 109.888H4178.13L4229.54 50.9531L4275.93 79.3821L4344.92 61.3894L4337.87 165.133L4384.35 165.376L4398.09 232.813L4366.63 307.41L4429.88 334.622L4454.38 522.955L4318.08 523.016L4299.42 568.907L4199.49 569.335L4153.43 536.957L4047.83 584.782L4013.39 550.011V460.099L3978.96 410.301L4013.14 332.144L4012.88 253.988L3955.49 230.539V110.418L4072.94 50.7168Z" stroke="#171717" stroke-width="3"/>
<path d="M4082.21 70.4341L4146.38 124.387H4180.68L4228.32 70.9066L4271.36 97.5097L4334.74 81.6943L4328.41 177.471L4371.63 177.956L4384.34 240.683L4355.63 309.974L4412.96 334.918L4434.77 507.557L4309.04 507.678L4291.16 549.811L4198.54 550.666L4156.15 520.821L4059.18 564.494L4027.61 532.188V449.337L3996.05 401.717L4027.11 329.962L4026.6 258.208L3973.99 236.136V125.447L4082.21 70.4341Z" stroke="#171717" stroke-width="3"/>
<path d="M4091.48 90.1509L4150.43 138.886H4183.23L4227.1 90.8597L4266.8 115.637L4324.56 101.999L4318.95 189.808L4358.91 190.536L4370.6 248.553L4344.63 312.537L4396.03 335.213L4415.15 492.158L4300 492.34L4282.89 530.714L4197.58 531.997L4158.86 504.684L4070.53 544.206L4041.84 514.365V438.574L4013.14 393.132L4041.07 327.78L4040.31 262.428L3992.48 241.732V140.476L4091.48 90.1509Z" stroke="#171717" stroke-width="3"/>
<path d="M4100.75 109.867L4154.48 153.384H4185.78L4225.89 110.812L4262.23 133.763L4314.38 122.303L4309.49 202.144L4346.19 203.115L4356.86 256.422L4333.63 315.099L4379.11 335.508L4395.53 476.758L4290.96 477.001L4274.62 511.616L4196.63 513.327L4161.58 488.546L4081.88 523.917L4056.06 496.541V427.81L4030.23 384.547L4055.04 325.597L4054.02 266.647L4010.98 247.328V155.504L4100.75 109.867Z" stroke="#171717" stroke-width="3"/>
<path d="M4110.02 129.584L4158.53 167.883H4188.33L4224.67 130.766L4257.66 151.891L4304.19 142.608L4300.03 214.482L4333.47 215.695L4343.12 264.292L4322.63 317.663L4362.19 335.804L4375.92 461.359L4281.92 461.663L4266.35 492.52L4195.67 494.659L4164.3 472.41L4093.23 503.629L4070.28 478.718V417.048L4047.32 375.962L4069.01 323.415L4067.73 270.868L4029.47 252.925V170.534L4110.02 129.584Z" stroke="#171717" stroke-width="3"/>
<path d="M4119.29 149.301L4162.58 182.382H4190.88L4223.45 150.719L4253.1 170.018L4294.01 162.912L4290.57 226.819L4320.76 228.275L4329.38 272.162L4311.63 320.226L4345.26 336.099L4356.3 445.96L4272.88 446.324L4258.08 473.423L4194.72 475.99L4167.02 456.273L4104.59 483.34L4084.5 460.895V406.285L4064.42 367.378L4082.97 321.233L4081.45 275.088L4047.97 258.521V185.562L4119.29 149.301Z" stroke="#171717" stroke-width="3"/>
<path d="M4128.56 169.018L4166.63 196.881H4193.42L4222.23 170.672L4248.53 188.145L4283.83 183.216L4281.12 239.156L4308.04 240.855L4315.63 280.031L4300.63 322.789L4328.34 336.394L4336.68 430.561L4263.83 430.986L4249.81 454.326L4193.76 457.321L4169.73 440.136L4115.94 463.052L4098.72 443.072V395.522L4081.51 358.793L4096.94 319.05L4095.16 279.308L4066.46 264.118V200.591L4128.56 169.018Z" stroke="#171717" stroke-width="3"/>
<path d="M4137.83 188.735L4170.68 211.38H4195.97L4221.02 190.625L4243.97 206.272L4273.65 203.521L4271.66 251.493L4295.32 253.434L4301.89 287.901L4289.63 325.351L4311.42 336.69L4317.07 415.162L4254.79 415.647L4241.54 435.229L4192.8 438.651L4172.45 423.998L4127.29 442.763L4112.94 425.249V384.759L4098.6 350.208L4110.91 316.868L4108.87 283.528L4084.96 269.714V215.62L4137.83 188.735Z" stroke="#171717" stroke-width="3"/>
<path d="M4147.1 208.452L4174.72 225.879H4198.52L4219.8 210.579L4239.4 224.4L4263.47 223.826L4262.2 263.831L4282.6 266.015L4288.15 295.771L4278.63 327.915L4294.5 336.985L4297.45 399.763L4245.75 400.309L4233.27 416.132L4191.85 419.983L4175.17 407.862L4138.64 422.475L4127.17 407.426V373.996L4115.69 341.624L4124.87 314.686L4122.58 287.748L4103.45 275.311V230.649L4147.1 208.452Z" stroke="#171717" stroke-width="3"/>
<path d="M4156.37 228.169L4178.77 240.378H4201.07L4218.58 230.532L4234.83 242.527L4253.29 244.13L4252.74 276.168L4269.88 278.594L4274.41 303.641L4267.63 330.478L4277.57 337.281L4277.83 384.364L4236.71 384.971L4225 397.035L4190.89 401.314L4177.89 391.725L4150 402.187L4141.39 389.603V363.233L4132.78 333.039L4138.84 312.504L4136.29 291.968L4121.95 280.907V245.678L4156.37 228.169Z" stroke="#171717" stroke-width="3"/>
<path d="M4165.64 247.886L4182.82 254.877H4203.62L4217.36 250.485L4230.27 260.654L4243.11 264.434L4243.28 288.505L4257.17 291.174L4260.66 311.511L4256.63 333.041L4260.65 337.576L4258.22 368.965L4227.67 369.632L4216.73 377.938L4189.94 382.644L4180.61 375.588L4161.35 381.898L4155.61 371.779V352.47L4149.87 324.454L4152.81 310.321L4150.01 296.188L4140.44 286.504V260.707L4165.64 247.886Z" stroke="#171717" stroke-width="3"/>
<path d="M4174.91 267.603L4186.87 269.376H4206.17L4216.15 270.438L4225.7 278.781L4232.93 284.739L4233.82 300.842L4244.45 303.754L4246.92 319.381L4245.63 335.604L4243.73 337.872L4238.6 353.566L4218.63 354.294L4208.46 358.842L4188.98 363.976L4183.32 359.451L4172.7 361.61L4169.83 353.957V341.708L4166.96 315.87L4166.78 308.139L4163.72 300.409L4158.94 292.1V275.736L4174.91 267.603Z" stroke="#171717" stroke-width="3"/>
<path d="M2355.18 185.687C2312.22 30.0306 2471.34 14.1867 2586.18 61.1867C2653.18 85.3582 2697.18 10.1867 2780.18 40.1867C2863.18 70.1867 2763.68 164.687 2890.68 213.187C3017.68 261.687 2955.68 478.687 2844.68 481.187C2733.68 483.687 2764.18 520.187 2653.18 603.687C2542.18 687.187 2355.18 571.187 2401.68 448.687C2448.18 326.187 2401.68 354.187 2355.18 185.687Z" stroke="#171717" stroke-width="3"/>
<path d="M2594.08 306.825C2589.12 292 2612.33 268.083 2631 278.29C2648.09 287.637 2665.5 281.333 2677 285.5C2707.28 296.47 2696.14 302.277 2709.67 315.305C2726.14 331.16 2734 372.675 2696.14 372.675C2665 372.675 2674.32 387.799 2651 394.5C2627.68 401.201 2601.24 389.794 2601.24 359.763C2601.24 348.485 2602.33 331.517 2594.08 306.825Z" stroke="#171717" stroke-width="3"/>
<path d="M2376.89 195.943C2337.39 53.0895 2484.16 36.5117 2590.25 80.1669C2652.71 102.991 2694.29 34.0799 2770.79 61.7314C2849 90.0014 2757.53 176.438 2874.22 221.714C2991.17 267.246 2935.52 468.293 2831.17 470.565C2727.43 472.838 2756.01 507.395 2652.98 583.913C2549.95 660.432 2377.54 553.94 2419.82 439.846C2462.09 327.457 2419.91 351.369 2376.89 195.943Z" stroke="#171717" stroke-width="3"/>
<path d="M2398.61 206.2C2362.56 76.1494 2496.97 58.8377 2594.32 99.148C2652.25 120.624 2691.41 57.974 2761.41 83.2771C2834.83 109.817 2751.39 188.191 2857.76 230.242C2964.67 272.806 2915.37 457.9 2817.66 459.945C2721.18 461.991 2747.83 494.604 2652.78 564.141C2557.72 633.677 2399.91 536.694 2437.96 431.007C2476 328.729 2438.15 348.553 2398.61 206.2Z" stroke="#171717" stroke-width="3"/>
<path d="M2420.32 216.457C2387.73 99.2098 2509.79 81.1642 2598.39 118.13C2651.78 138.258 2688.53 81.8687 2752.03 104.823C2820.65 129.633 2745.25 199.944 2841.3 238.77C2938.16 278.367 2895.21 447.507 2804.16 449.325C2714.94 451.144 2739.66 481.814 2652.57 544.369C2565.49 606.924 2422.28 519.449 2456.09 422.168C2489.91 330.001 2456.39 345.737 2420.32 216.457Z" stroke="#171717" stroke-width="3"/>
<path d="M2442.04 226.715C2412.9 122.271 2522.6 103.491 2602.47 137.112C2651.32 155.892 2685.65 105.764 2742.65 126.37C2806.47 149.45 2739.11 211.698 2824.85 247.299C2911.65 283.928 2875.06 437.115 2790.65 438.706C2708.69 440.297 2731.49 469.024 2652.37 524.597C2573.26 580.17 2444.64 502.204 2474.23 413.329C2503.82 331.273 2474.63 342.922 2442.04 226.715Z" stroke="#171717" stroke-width="3"/>
<path d="M2463.75 237.493C2438.07 145.851 2535.42 126.337 2606.54 156.613C2650.85 174.046 2682.76 130.178 2733.26 148.436C2792.3 169.786 2732.96 223.971 2808.39 256.348C2885.15 290.009 2854.9 427.243 2777.15 428.606C2702.45 429.97 2723.32 456.754 2652.17 505.345C2581.03 553.937 2467.01 485.479 2492.37 405.01C2517.74 333.065 2492.87 340.626 2463.75 237.493Z" stroke="#171717" stroke-width="3"/>
<path d="M2485.47 248.886C2463.24 170.047 2548.23 149.799 2610.61 176.731C2650.39 192.816 2679.88 155.209 2723.88 171.118C2778.12 190.738 2726.82 236.86 2791.93 266.012C2858.64 296.705 2834.75 417.986 2763.64 419.122C2696.2 420.258 2715.15 445.099 2651.97 486.709C2588.8 528.318 2489.38 469.369 2510.51 397.306C2531.65 335.473 2511.11 338.945 2485.47 248.886Z" stroke="#171717" stroke-width="3"/>
<path d="M2507.19 260.313C2488.41 194.276 2561.05 173.295 2614.68 196.881C2649.92 211.619 2677 180.272 2714.5 193.833C2763.95 211.723 2720.68 249.782 2775.48 275.709C2832.14 303.435 2814.59 408.762 2750.14 409.671C2689.96 410.58 2706.98 433.477 2651.77 468.106C2596.57 502.734 2511.75 453.293 2528.65 389.636C2545.56 337.914 2529.35 337.299 2507.19 260.313Z" stroke="#171717" stroke-width="3"/>
<path d="M2528.9 271.788C2513.58 218.555 2573.86 196.839 2618.76 217.081C2649.46 230.471 2674.12 205.385 2705.12 216.597C2749.78 232.757 2714.54 262.753 2759.02 285.456C2805.63 310.213 2794.44 399.588 2736.63 400.27C2683.71 400.952 2698.81 421.905 2651.58 449.552C2604.35 477.198 2534.11 437.266 2546.8 382.016C2559.48 340.404 2547.59 335.701 2528.9 271.788Z" stroke="#171717" stroke-width="3"/>
<path d="M2550.62 283.337C2538.76 242.906 2586.68 220.457 2622.83 237.354C2649 249.396 2671.24 230.571 2695.74 239.435C2735.6 253.865 2708.4 275.797 2742.57 295.275C2779.13 317.065 2774.29 390.487 2723.13 390.941C2677.47 391.396 2690.64 410.406 2651.38 431.071C2612.12 451.735 2556.48 421.312 2564.94 374.468C2573.39 342.968 2565.83 334.176 2550.62 283.337Z" stroke="#171717" stroke-width="3"/>
<path d="M2572.34 294.996C2563.93 267.368 2599.5 244.185 2626.91 257.737C2648.54 268.431 2668.37 255.867 2686.37 262.382C2721.44 275.082 2702.27 288.952 2726.11 305.205C2752.63 324.027 2754.14 381.495 2709.63 381.723C2671.23 381.95 2682.47 399.017 2651.19 412.7C2619.9 426.383 2578.86 405.468 2583.08 367.03C2587.31 345.641 2584.08 332.762 2572.34 294.996Z" stroke="#171717" stroke-width="3"/>
<path d="M3338.6 40.9451C3321.46 -3.66423 3236.64 -25.6931 3250.63 63.1279C3252.93 77.6916 3253.16 102.769 3250.63 133.293C3248.32 161.255 3203.02 176.555 3189.12 212.685C3167.31 269.347 3248.85 308.842 3235.87 338.628C3218.88 377.641 3166.84 394.567 3138.06 415.911C3110.96 436.004 3093.7 468.244 3087.07 501.39C3075.45 559.541 3096.55 620.481 3154.67 623.513C3183.76 625.031 3222.13 612.037 3270.32 576.918C3291.86 561.216 3310.86 548.275 3327.75 537.812C3371.2 510.881 3359.52 574.583 3411.2 576.918C3440.64 578.248 3471.39 523.253 3494.67 552.588C3511.23 573.446 3530.22 598.755 3557.35 624.774C3604.99 670.469 3664.56 677.196 3672.98 611.981C3676.96 581.196 3669.54 534.379 3644.09 468.061C3627.81 425.622 3668.31 427.118 3672.98 372.733C3677.65 318.349 3639.48 293.268 3667.11 270.76L3667.66 270.309C3688.72 253.154 3711.18 234.858 3723.45 199.717C3734.02 169.446 3733.01 139.465 3723.45 116.428C3713.22 91.7724 3693.21 75.0702 3667.11 74.4778C3640.93 73.8833 3608.63 89.5075 3573.96 129.59C3551.1 156.017 3535.62 94.5252 3494.67 100.811C3453.72 107.097 3448.03 166.428 3423.5 149.22C3380.89 119.327 3358.69 93.1904 3338.6 40.9451Z" stroke="#171717" stroke-width="3"/>
<path d="M3421.32 284.279C3418.71 277.43 3406.55 279.228 3405.93 286.65C3405.23 295.1 3409.51 306.112 3409.01 314.583C3408.06 330.938 3402.28 335.593 3390.78 344.213C3386.65 347.298 3384.03 352.247 3383.02 357.336C3381.25 366.263 3384.46 375.618 3393.3 376.084C3397.73 376.317 3403.57 374.322 3410.9 368.931C3414.18 366.52 3417.07 364.534 3419.64 362.927C3430.83 355.375 3441.24 361.293 3445.05 365.196C3447.57 368.398 3450.46 372.283 3454.59 376.277C3461.84 383.292 3472.82 382.373 3472.18 374.313C3471.29 362.927 3451.85 320.426 3472.18 313.015C3481.63 309.572 3481.32 301.774 3479.86 298.238C3478.31 294.453 3475.26 291.889 3471.29 291.798C3467.31 291.706 3460.71 298.238 3457.11 300.258C3443.86 307.718 3432.03 311.573 3421.32 284.279Z" stroke="#171717" stroke-width="3"/>
<path d="M3264.82 82.5608C3252.39 1.70281 3329.91 21.859 3345.63 62.7544C3364.87 112.751 3386.15 136.183 3426.13 162.707C3448.61 178.272 3454.02 124.098 3491.52 118.21C3529.01 112.322 3543.34 168.123 3564.32 144.083C3596.22 107.624 3625.89 93.6402 3649.85 94.5226C3673.66 95.2212 3691.91 110.673 3701.13 133.359C3709.75 154.574 3710.46 182.105 3700.41 209.801C3687.31 242.722 3668.38 263.213 3649.15 279.968C3624.04 300.81 3658.53 323.832 3653.96 373.344C3649.39 422.856 3612.12 421.358 3626.61 459.654C3649.39 519.63 3655.87 561.875 3652.03 589.595C3644.19 648.753 3589.67 642.41 3545.91 600.744C3520.82 576.979 3503.05 553.99 3487.48 535.353C3466.06 508.809 3437.82 559.023 3410.73 558.03C3363.38 556.15 3373.71 498.359 3333.9 522.964C3318.27 532.587 3300.75 544.4 3280.95 558.676C3236.3 590.586 3201.09 601.564 3174.78 599.378C3121.95 596.39 3102.83 540.719 3113.53 487.608C3119.68 457.247 3135.53 427.734 3160.37 409.313C3187.61 389.117 3235.48 373.296 3251.03 336.326C3262.86 308.844 3188.59 272.472 3208.34 220.48C3220.91 187.169 3262.05 172.81 3264.18 146.988C3266.51 118.882 3266.59 95.8581 3264.82 82.5608Z" stroke="#171717" stroke-width="3"/>
<path d="M3279.64 102.812C3268.81 30.1824 3338.9 48.3997 3353.17 85.4463C3371.55 133.025 3391.87 153.676 3429.15 176.746C3449.56 190.617 3454.68 141.779 3488.67 136.308C3522.65 130.838 3535.8 180.765 3554.87 159.192C3583.97 126.475 3610.96 114.177 3632.67 115.343C3654.15 116.145 3670.62 130.295 3678.82 150.938C3686.47 170.26 3686.88 195.25 3677.38 220.28C3663.56 250.564 3648.47 273.164 3631.27 289.33C3608.72 308.437 3639.48 329.323 3635.01 373.801C3630.54 418.28 3596.56 416.783 3609.23 450.811C3629.31 504.25 3634.85 541.784 3631.14 566.349C3623.9 619.256 3574.51 613.32 3534.7 575.819C3511.68 554.386 3495.16 533.791 3480.59 517.437C3461.07 493.77 3435.38 539.039 3410.68 538.387C3367.73 536.965 3376.69 485.275 3340.59 507.474C3326.24 516.225 3310.22 526.872 3292.19 539.674C3251.14 568.271 3219.15 577.198 3195.66 574.352C3148.19 571.418 3131.09 521.199 3140.84 473.304C3146.5 445.828 3160.93 419.138 3183.48 402.451C3209.13 383.469 3252.77 368.808 3266.85 334.005C3277.51 308.917 3210.61 275.787 3228.29 228.638C3239.5 198.256 3276.42 184.885 3278.37 161.29C3280.5 135.694 3280.89 114.8 3279.64 102.812Z" stroke="#171717" stroke-width="3"/>
<path d="M3293.81 122.246C3284.56 57.5796 3347.34 73.9241 3360.18 107.257C3377.73 152.586 3397.12 170.532 3431.77 190.233C3450.13 202.461 3454.97 158.781 3485.5 153.708C3516.03 148.635 3528.02 192.872 3545.21 173.686C3571.54 144.592 3595.9 133.934 3615.39 135.389C3634.59 136.297 3649.29 149.196 3656.48 167.87C3663.19 185.368 3663.3 207.908 3654.32 230.364C3639.76 258.119 3628.5 282.902 3613.29 298.536C3593.26 315.977 3620.35 334.803 3615.97 374.409C3611.6 414.015 3580.85 412.517 3591.72 442.4C3609.13 489.499 3613.74 522.46 3610.16 543.96C3603.5 590.81 3559.16 585.259 3523.24 551.787C3502.26 532.608 3486.96 514.332 3473.38 500.199C3455.72 479.323 3432.54 519.812 3410.2 519.496C3371.57 518.529 3379.18 472.75 3346.73 492.624C3333.63 500.534 3319.1 510.054 3302.81 521.429C3265.3 546.817 3236.48 553.729 3215.78 550.214C3173.59 547.324 3158.47 502.375 3167.29 459.52C3172.47 434.83 3185.5 410.865 3205.8 395.852C3229.9 378.017 3269.37 364.463 3282.01 331.702C3291.52 308.919 3231.89 278.912 3247.52 236.433C3257.39 208.87 3290.14 196.441 3291.92 174.985C3293.84 151.808 3294.55 132.967 3293.81 122.246Z" stroke="#171717" stroke-width="3"/>
<path d="M3308.63 141.679C3300.96 84.9782 3356.32 99.4496 3367.71 129.067C3384.39 172.151 3402.83 187.39 3434.78 203.72C3451.06 214.305 3455.61 175.784 3482.63 171.109C3509.65 166.433 3520.46 204.977 3535.74 188.179C3559.26 162.709 3580.94 153.693 3598.17 155.436C3615.05 156.451 3627.96 168.099 3634.14 184.804C3639.89 200.479 3639.7 220.568 3631.25 240.449C3615.98 265.676 3608.56 292.649 3595.38 307.753C3577.9 323.528 3601.26 340.295 3596.99 375.027C3592.72 409.76 3565.27 408.258 3574.32 433.996C3589.02 474.751 3592.7 503.138 3589.25 521.571C3583.19 562.361 3543.97 557.195 3512.01 527.752C3493.11 510.828 3479.05 494.873 3466.47 482.963C3450.72 464.878 3430.08 500.585 3410.14 500.608C3375.91 500.095 3382.15 460.229 3353.41 477.777C3341.59 484.847 3328.56 493.239 3314.04 503.187C3280.14 525.364 3254.54 530.258 3236.66 526.074C3199.83 523.227 3186.73 483.549 3194.61 445.735C3199.3 423.831 3210.9 402.594 3228.9 389.254C3251.42 372.565 3286.65 360.117 3297.82 329.397C3306.17 308.919 3253.91 282.034 3267.46 244.227C3275.98 219.483 3304.5 207.994 3306.1 188.679C3307.82 167.92 3308.83 151.133 3308.63 141.679Z" stroke="#171717" stroke-width="3"/>
<path d="M3323.43 162.027C3317.36 113.418 3365.29 125.984 3375.23 151.821C3391.04 192.561 3408.52 205.06 3437.78 217.983C3451.97 226.9 3456.23 193.624 3479.73 189.357C3503.24 185.091 3512.88 217.856 3526.25 203.483C3546.96 181.694 3565.95 174.339 3580.93 176.367C3595.49 177.485 3606.61 187.857 3611.76 202.555C3616.56 216.372 3616.07 233.966 3608.16 251.227C3592.18 273.869 3588.61 302.97 3577.45 317.51C3562.53 331.582 3582.16 346.252 3577.99 376.033C3573.83 405.815 3549.67 404.314 3556.9 425.849C3568.9 460.169 3571.63 483.918 3568.32 499.243C3562.86 533.883 3528.77 529.114 3500.76 503.767C3483.94 489.135 3471.13 475.535 3459.56 465.875C3445.7 450.622 3427.62 481.468 3410.08 481.828C3380.24 481.77 3385.11 447.907 3360.09 463.089C3349.55 469.303 3338.03 476.549 3325.27 485.048C3294.98 503.965 3272.6 506.831 3257.54 501.986C3226.08 499.19 3214.99 464.871 3221.92 432.183C3226.12 413.114 3236.3 394.652 3252.01 383.014C3272.93 367.51 3303.93 356.196 3313.62 327.587C3320.81 309.458 3275.93 285.756 3287.4 252.705C3294.56 230.837 3318.86 220.314 3320.28 203.183C3321.79 184.889 3323.12 170.193 3323.43 162.027Z" stroke="#171717" stroke-width="3"/>
<path d="M3337.6 181.46C3333.11 140.821 3373.71 151.513 3382.22 173.634C3397.19 212.132 3413.75 221.922 3440.36 231.471C3452.5 238.744 3456.48 210.629 3476.53 206.76C3496.57 202.89 3505.06 229.959 3516.54 217.977C3534.48 199.814 3550.83 194.101 3563.59 196.418C3575.86 197.644 3585.2 206.765 3589.35 219.493C3593.2 231.486 3592.41 246.628 3585.03 261.313C3568.3 281.428 3568.56 312.728 3559.4 326.739C3547 339.146 3562.95 351.755 3558.88 376.66C3554.81 401.566 3533.9 400.062 3539.33 417.448C3548.65 445.421 3550.45 464.592 3547.26 476.848C3542.39 505.424 3513.36 501.04 3489.24 479.725C3474.46 467.349 3462.87 456.071 3452.29 448.635C3440.3 436.175 3424.74 462.237 3409.55 462.936C3384.05 463.333 3387.56 435.388 3366.2 448.243C3356.92 453.615 3346.88 459.733 3335.87 466.804C3309.12 482.51 3289.92 483.355 3277.65 477.838C3251.49 475.084 3242.38 446.038 3248.38 418.395C3252.1 402.113 3260.88 386.378 3274.33 376.415C3293.7 362.056 3320.52 351.847 3328.77 325.277C3334.81 309.453 3297.2 288.875 3306.62 260.497C3312.44 241.448 3332.56 231.865 3333.81 216.876C3335.12 201 3336.76 188.359 3337.6 181.46Z" stroke="#171717" stroke-width="3"/>
<path d="M3352.38 200.892C3349.49 168.229 3382.65 177.046 3389.71 195.449C3403.81 231.713 3419.39 238.791 3443.3 244.96C3453.36 250.586 3457.04 227.637 3473.57 224.165C3490.1 220.693 3497.4 242.06 3506.98 232.469C3522.09 217.935 3535.77 213.867 3546.27 216.475C3556.21 217.808 3563.76 225.678 3566.89 236.437C3569.78 246.606 3568.69 259.295 3561.85 271.402C3544.44 288.99 3548.53 322.507 3541.39 335.993C3531.55 346.733 3543.77 357.282 3539.81 377.307C3535.84 397.332 3518.23 395.825 3521.84 409.058C3528.46 430.676 3529.32 445.264 3526.27 454.448C3522 476.956 3498.1 472.955 3477.95 455.675C3465.25 445.556 3454.91 436.601 3445.34 431.394C3435.25 421.73 3422.24 443.005 3409.46 444.044C3388.36 444.897 3390.51 422.874 3372.86 433.4C3364.86 437.932 3356.33 442.921 3347.09 448.563C3323.96 461.054 3307.98 459.873 3298.54 453.68C3277.74 450.969 3270.65 427.2 3275.7 404.604C3278.94 391.11 3286.28 378.105 3297.43 369.816C3315.2 356.6 3337.78 347.496 3344.56 322.961C3349.43 309.442 3319.21 291.988 3326.55 268.285C3331.02 252.057 3346.91 243.413 3347.97 230.564C3349.08 217.108 3351.03 206.523 3352.38 200.892Z" stroke="#171717" stroke-width="3"/>
<path d="M3366.76 220.322C3365.44 195.646 3391.35 202.586 3396.99 217.268C3410.3 251.309 3425 255.67 3446.34 258.451C3454.36 262.428 3457.78 244.649 3470.88 241.574C3483.98 238.498 3490.15 254.156 3497.86 246.959C3510.24 236.059 3521.31 233.64 3529.61 236.541C3537.28 237.983 3543.08 244.602 3545.21 253.389C3547.15 261.733 3545.76 271.969 3539.42 281.496C3521.2 296.556 3529.16 332.315 3524 345.283C3516.67 354.356 3525.23 362.842 3521.35 377.981C3517.46 393.12 3503.05 391.608 3504.87 400.681C3508.82 415.934 3508.74 425.931 3505.81 432.037C3502.12 448.466 3483.22 444.849 3466.92 431.608C3456.23 423.749 3447.09 417.121 3438.48 414.147C3430.23 407.284 3419.71 423.766 3409.26 425.146C3392.44 426.458 3393.24 410.367 3379.2 418.562L3378.81 418.775C3372.17 422.4 3365.23 426.192 3357.86 430.322C3338.22 439.593 3325.38 436.379 3318.71 429.505C3303.17 426.834 3298.06 408.347 3302.18 390.804C3304.95 380.101 3310.9 369.828 3319.82 363.215C3336.09 351.139 3354.55 343.14 3359.89 320.633C3363.63 309.42 3340.62 295.091 3345.92 276.067C3349.05 262.661 3360.8 254.954 3361.69 244.248C3362.61 233.212 3364.87 224.684 3366.76 220.322Z" stroke="#171717" stroke-width="3"/>
<path d="M3381.51 240.695C3381.78 224.113 3400.23 229.146 3404.42 240.042C3416.83 271.707 3430.55 273.332 3449.15 272.713C3455.08 275.024 3458.2 262.494 3467.77 259.829C3477.35 257.164 3482.33 267.044 3488.12 262.273C3497.67 255.055 3506.04 254.294 3512.08 257.476C3517.42 259.019 3521.42 264.358 3522.53 271.135C3523.51 277.617 3521.83 285.353 3516.04 292.257C3497.15 304.723 3508.92 342.561 3505.79 354.95C3501.02 362.317 3505.85 368.702 3502.08 378.889C3498.31 389.075 3487.21 387.566 3487.2 392.439C3488.46 401.26 3487.44 406.623 3484.66 409.624C3481.56 419.903 3467.82 416.686 3455.49 407.542C3446.89 401.978 3439.02 397.706 3431.43 396.977C3425.1 392.944 3417.14 404.562 3409.1 406.277C3396.7 408.041 3396.13 397.952 3385.83 403.779C3380.36 406.611 3374.8 409.323 3369.07 412.085C3353.07 418.096 3343.46 412.864 3339.62 405.34C3329.46 402.723 3326.36 389.599 3329.54 377.186C3331.81 369.322 3336.33 361.826 3342.94 356.918C3357.59 346.037 3371.79 339.178 3375.66 318.801C3378.22 309.944 3362.62 298.805 3365.83 284.544C3367.61 274.018 3375.12 267.285 3375.83 258.767C3376.54 250.201 3379.11 243.768 3381.51 240.695Z" stroke="#171717" stroke-width="3"/>
<path d="M3396.48 260.152C3398.33 251.607 3409.38 254.749 3412.12 261.892C3423.67 291.252 3436.42 290.152 3452.32 286.144C3456.17 286.797 3459 279.476 3465.08 277.214C3471.15 274.953 3474.96 279.092 3478.84 276.731C3485.59 273.168 3491.29 274.06 3495.08 277.527C3498.11 279.175 3500.33 283.249 3500.42 288.035C3500.45 292.673 3498.47 297.933 3493.23 302.237C3473.65 312.142 3489.23 352.129 3488.11 363.967C3485.89 369.647 3487.01 373.951 3483.34 379.221C3479.68 384.49 3471.86 382.98 3470.05 383.676C3468.61 386.104 3466.66 386.857 3464.02 386.768C3461.52 390.938 3452.89 388.112 3444.5 383.035C3437.98 379.747 3431.35 377.815 3424.77 379.323C3420.33 378.105 3414.91 384.896 3409.26 386.948C3401.24 389.167 3399.32 385.04 3392.71 388.52C3388.52 390.502 3384.46 392.076 3380.5 393.398C3368.1 396.171 3361.7 388.917 3360.66 380.73C3355.85 378.16 3354.75 370.357 3356.99 363.033C3358.77 357.983 3361.87 353.241 3366.2 350.023C3379.25 340.311 3389.22 334.574 3391.63 316.28C3393.03 309.753 3384.77 301.771 3385.92 292.23C3386.34 284.556 3389.65 278.778 3390.18 272.426C3390.68 266.304 3393.56 261.946 3396.48 260.152Z" stroke="#171717" stroke-width="3"/>
</svg>
