<svg width="1304" height="1304" viewBox="0 0 1304 1304" fill="none" xmlns="http://www.w3.org/2000/svg">
<circle cx="935.479" cy="637.827" r="28.3478" transform="rotate(90 935.479 637.827)" fill="#DFDFDF"/>
<circle cx="862.473" cy="842.429" r="28.3478" transform="rotate(135 862.473 842.429)" fill="#DFDFDF"/>
<circle cx="666.175" cy="935.479" r="28.3478" transform="rotate(180 666.175 935.479)" fill="#DFDFDF"/>
<circle cx="461.573" cy="862.474" r="28.3478" transform="rotate(-135 461.573 862.474)" fill="#DFDFDF"/>
<circle cx="368.522" cy="666.177" r="28.3478" transform="rotate(-90 368.522 666.177)" fill="#DFDFDF"/>
<circle cx="441.527" cy="461.575" r="28.3478" transform="rotate(-45 441.527 461.575)" fill="#DFDFDF"/>
<circle cx="637.827" cy="368.525" r="28.3478" fill="#DFDFDF"/>
<circle cx="842.428" cy="441.529" r="28.3478" transform="rotate(45 842.428 441.529)" fill="#DFDFDF"/>
<circle cx="962.699" cy="321.264" r="24.8043" transform="rotate(45 962.699 321.264)" stroke="#DFDFDF" stroke-width="7.08696"/>
<circle cx="1065.62" cy="465.338" r="24.8043" transform="rotate(67.5 1065.62 465.338)" stroke="#DFDFDF" stroke-width="7.08696"/>
<circle cx="1105.57" cy="637.83" r="24.8043" transform="rotate(90 1105.57 637.83)" stroke="#DFDFDF" stroke-width="7.08696"/>
<circle cx="1076.47" cy="812.481" r="24.8043" transform="rotate(112.5 1076.47 812.481)" stroke="#DFDFDF" stroke-width="7.08696"/>
<circle cx="982.745" cy="962.7" r="24.8043" transform="rotate(135 982.745 962.7)" stroke="#DFDFDF" stroke-width="7.08696"/>
<circle cx="838.669" cy="1065.62" r="24.8043" transform="rotate(157.5 838.669 1065.62)" stroke="#DFDFDF" stroke-width="7.08696"/>
<circle cx="666.175" cy="1105.57" r="24.8043" transform="rotate(180 666.175 1105.57)" stroke="#DFDFDF" stroke-width="7.08696"/>
<circle cx="491.525" cy="1076.47" r="24.8043" transform="rotate(-157.5 491.525 1076.47)" stroke="#DFDFDF" stroke-width="7.08696"/>
<circle cx="341.302" cy="982.746" r="24.8043" transform="rotate(-135 341.302 982.746)" stroke="#DFDFDF" stroke-width="7.08696"/>
<circle cx="238.385" cy="838.669" r="24.8043" transform="rotate(-112.5 238.385 838.669)" stroke="#DFDFDF" stroke-width="7.08696"/>
<circle cx="198.435" cy="666.177" r="24.8043" transform="rotate(-90 198.435 666.177)" stroke="#DFDFDF" stroke-width="7.08696"/>
<circle cx="227.537" cy="491.525" r="24.8043" transform="rotate(-67.5 227.537 491.525)" stroke="#DFDFDF" stroke-width="7.08696"/>
<circle cx="321.259" cy="341.307" r="24.8043" transform="rotate(-45 321.259 341.307)" stroke="#DFDFDF" stroke-width="7.08696"/>
<circle cx="465.333" cy="238.388" r="24.8043" transform="rotate(-22.5 465.333 238.388)" stroke="#DFDFDF" stroke-width="7.08696"/>
<circle cx="637.827" cy="198.437" r="24.8043" stroke="#DFDFDF" stroke-width="7.08696"/>
<circle cx="812.48" cy="227.543" r="24.8043" transform="rotate(22.5 812.48 227.543)" stroke="#DFDFDF" stroke-width="7.08696"/>
<circle cx="951.555" cy="104.817" r="28.3478" transform="rotate(30 951.555 104.817)" fill="#DFDFDF"/>
<circle cx="1082.97" cy="200.99" r="28.3478" transform="rotate(45 1082.97 200.99)" fill="#DFDFDF"/>
<circle cx="1185.01" cy="327.901" r="28.3478" transform="rotate(60 1185.01 327.901)" fill="#DFDFDF"/>
<circle cx="1250.74" cy="476.897" r="28.3478" transform="rotate(75 1250.74 476.897)" fill="#DFDFDF"/>
<circle cx="1275.66" cy="637.827" r="28.3478" transform="rotate(90 1275.66 637.827)" fill="#DFDFDF"/>
<circle cx="1258.07" cy="799.722" r="28.3478" transform="rotate(105 1258.07 799.722)" fill="#DFDFDF"/>
<circle cx="1199.19" cy="951.551" r="28.3478" transform="rotate(120 1199.19 951.551)" fill="#DFDFDF"/>
<circle cx="1103.02" cy="1082.97" r="28.3478" transform="rotate(135 1103.02 1082.97)" fill="#DFDFDF"/>
<circle cx="976.103" cy="1185.02" r="28.3478" transform="rotate(150 976.103 1185.02)" fill="#DFDFDF"/>
<circle cx="827.107" cy="1250.74" r="28.3478" transform="rotate(165 827.107 1250.74)" fill="#DFDFDF"/>
<circle cx="666.176" cy="1275.65" r="28.3478" transform="rotate(180 666.176 1275.65)" fill="#DFDFDF"/>
<circle cx="504.28" cy="1258.07" r="28.3478" transform="rotate(-165 504.28 1258.07)" fill="#DFDFDF"/>
<circle cx="352.45" cy="1199.19" r="28.3478" transform="rotate(-150 352.45 1199.19)" fill="#DFDFDF"/>
<circle cx="221.035" cy="1103.01" r="28.3478" transform="rotate(-135 221.035 1103.01)" fill="#DFDFDF"/>
<circle cx="118.989" cy="976.103" r="28.3478" transform="rotate(-120 118.989 976.103)" fill="#DFDFDF"/>
<circle cx="53.2666" cy="827.101" r="28.3478" transform="rotate(-105 53.2666 827.101)" fill="#DFDFDF"/>
<circle cx="28.3478" cy="666.175" r="28.3478" transform="rotate(-90 28.3478 666.175)" fill="#DFDFDF"/>
<circle cx="45.9308" cy="504.278" r="28.3478" transform="rotate(-75 45.9308 504.278)" fill="#DFDFDF"/>
<circle cx="104.814" cy="352.449" r="28.3478" transform="rotate(-60 104.814 352.449)" fill="#DFDFDF"/>
<circle cx="200.99" cy="221.034" r="28.3478" transform="rotate(-45 200.99 221.034)" fill="#DFDFDF"/>
<circle cx="327.898" cy="118.989" r="28.3478" transform="rotate(-30 327.898 118.989)" fill="#DFDFDF"/>
<circle cx="476.896" cy="53.2671" r="28.3478" transform="rotate(-15 476.896 53.2671)" fill="#DFDFDF"/>
<circle cx="637.827" cy="28.3483" r="28.3478" fill="#DFDFDF"/>
<circle cx="799.725" cy="45.9327" r="28.3478" transform="rotate(15 799.725 45.9327)" fill="#DFDFDF"/>
</svg>
