<svg width="1304" height="1304" viewBox="0 0 1304 1304" fill="none" xmlns="http://www.w3.org/2000/svg">
<circle cx="1272.95" cy="636.475" r="31.0476" transform="rotate(90 1272.95 636.475)" fill="#DFDFDF"/>
<circle cx="1086.67" cy="636.475" r="31.0476" transform="rotate(90 1086.67 636.475)" fill="#DFDFDF"/>
<circle cx="900.381" cy="636.475" r="31.0476" transform="rotate(90 900.381 636.475)" fill="#DFDFDF"/>
<circle cx="1102.06" cy="1080.1" r="31.0476" transform="rotate(135 1102.06 1080.1)" fill="#DFDFDF"/>
<circle cx="970.333" cy="948.377" r="31.0476" transform="rotate(135 970.333 948.377)" fill="#DFDFDF"/>
<circle cx="838.609" cy="816.654" r="31.0476" transform="rotate(135 838.609 816.654)" fill="#DFDFDF"/>
<circle cx="667.524" cy="1272.95" r="31.0476" transform="rotate(180 667.524 1272.95)" fill="#DFDFDF"/>
<circle cx="667.524" cy="1086.67" r="31.0476" transform="rotate(180 667.524 1086.67)" fill="#DFDFDF"/>
<circle cx="667.524" cy="900.382" r="31.0476" transform="rotate(180 667.524 900.382)" fill="#DFDFDF"/>
<circle cx="223.897" cy="1102.06" r="31.0476" transform="rotate(-135 223.897 1102.06)" fill="#DFDFDF"/>
<circle cx="355.621" cy="970.333" r="31.0476" transform="rotate(-135 355.621 970.333)" fill="#DFDFDF"/>
<circle cx="487.344" cy="838.609" r="31.0476" transform="rotate(-135 487.344 838.609)" fill="#DFDFDF"/>
<circle cx="31.0476" cy="667.524" r="31.0476" transform="rotate(-90 31.0476 667.524)" fill="#DFDFDF"/>
<circle cx="217.333" cy="667.524" r="31.0476" transform="rotate(-90 217.333 667.524)" fill="#DFDFDF"/>
<circle cx="403.619" cy="667.524" r="31.0476" transform="rotate(-90 403.619 667.524)" fill="#DFDFDF"/>
<circle cx="201.943" cy="223.897" r="31.0476" transform="rotate(-45 201.943 223.897)" fill="#DFDFDF"/>
<circle cx="333.667" cy="355.621" r="31.0476" transform="rotate(-45 333.667 355.621)" fill="#DFDFDF"/>
<circle cx="465.391" cy="487.345" r="31.0476" transform="rotate(-45 465.391 487.345)" fill="#DFDFDF"/>
<circle cx="636.476" cy="31.0471" r="31.0476" fill="#DFDFDF"/>
<circle cx="636.476" cy="217.333" r="31.0476" fill="#DFDFDF"/>
<circle cx="636.476" cy="403.618" r="31.0476" fill="#DFDFDF"/>
<circle cx="1080.1" cy="201.942" r="31.0476" transform="rotate(45 1080.1 201.942)" fill="#DFDFDF"/>
<circle cx="948.379" cy="333.666" r="31.0476" transform="rotate(45 948.379 333.666)" fill="#DFDFDF"/>
<circle cx="816.655" cy="465.39" r="31.0476" transform="rotate(45 816.655 465.39)" fill="#DFDFDF"/>
</svg>
