<svg width="1336" height="961" viewBox="0 0 1336 961" fill="none" xmlns="http://www.w3.org/2000/svg">
<path d="M1168.84 0.565918H166.978C122.692 0.565918 80.2208 18.158 48.9065 49.4724C17.5921 80.7867 0 123.258 0 167.543V793.709C0 837.994 17.5921 880.466 48.9065 911.78C80.2208 943.094 122.692 960.687 166.978 960.687H1168.84C1213.13 960.687 1255.6 943.094 1286.91 911.78C1318.23 880.466 1335.82 837.994 1335.82 793.709V167.543C1335.82 123.258 1318.23 80.7867 1286.91 49.4724C1255.6 18.158 1213.13 0.565918 1168.84 0.565918ZM1252.33 793.709C1252.33 815.852 1243.54 837.087 1227.88 852.745C1212.22 868.402 1190.99 877.198 1168.84 877.198H166.978C144.835 877.198 123.599 868.402 107.942 852.745C92.2848 837.087 83.4888 815.852 83.4888 793.709V167.543C83.4888 145.401 92.2848 124.165 107.942 108.508C123.599 92.8507 144.835 84.0547 166.978 84.0547H1168.84C1190.99 84.0547 1212.22 92.8507 1227.88 108.508C1243.54 124.165 1252.33 145.401 1252.33 167.543V793.709Z" fill="white"/>
<path d="M1159.24 224.719C1155.77 220.462 1151.48 216.933 1146.64 214.334C1141.8 211.735 1136.49 210.117 1131.02 209.574C1125.56 209.031 1120.03 209.573 1114.78 211.169C1109.52 212.765 1104.63 215.384 1100.38 218.875L667.909 572.867L235.02 218.875C230.856 214.981 225.939 211.981 220.571 210.061C215.204 208.14 209.5 207.34 203.811 207.708C198.122 208.076 192.569 209.606 187.493 212.202C182.418 214.799 177.929 218.408 174.302 222.806C170.675 227.204 167.987 232.299 166.405 237.775C164.822 243.252 164.377 248.995 165.099 254.65C165.821 260.305 167.693 265.752 170.6 270.656C173.508 275.559 177.389 279.815 182.005 283.161L641.193 658.861C648.703 665.084 658.156 668.481 667.909 668.462C677.519 668.385 686.809 664.993 694.208 658.861L1153.4 283.161C1161.87 276.154 1167.24 266.085 1168.34 255.142C1169.43 244.199 1166.16 233.266 1159.24 224.719V224.719Z" fill="white"/>
<path d="M989.342 555.337C981.521 547.562 970.941 543.198 959.912 543.198C948.884 543.198 938.304 547.562 930.483 555.337C926.57 559.218 923.464 563.835 921.345 568.922C919.226 574.009 918.135 579.465 918.135 584.976C918.135 590.486 919.226 595.942 921.345 601.029C923.464 606.116 926.57 610.733 930.483 614.614L1097.46 781.591C1101.35 785.456 1105.97 788.516 1111.04 790.598C1116.12 792.679 1121.55 793.74 1127.04 793.721C1132.52 793.701 1137.95 792.602 1143.01 790.485C1148.07 788.368 1152.66 785.275 1156.53 781.383C1160.39 777.491 1163.45 772.875 1165.53 767.8C1167.62 762.725 1168.68 757.29 1168.66 751.805C1168.64 746.32 1167.54 740.893 1165.42 735.833C1163.31 730.773 1160.21 726.179 1156.32 722.314L989.342 555.337Z" fill="white"/>
<path d="M347.731 555.337L180.753 722.314C172.893 730.12 168.454 740.728 168.415 751.805C168.376 762.883 172.739 773.522 180.544 781.383C188.35 789.244 198.958 793.681 210.035 793.721C221.113 793.76 231.752 789.397 239.613 781.591L406.591 614.614C410.503 610.733 413.609 606.116 415.728 601.029C417.847 595.942 418.938 590.486 418.938 584.976C418.938 579.465 417.847 574.009 415.728 568.922C413.609 563.835 410.503 559.218 406.591 555.337C398.769 547.562 388.189 543.198 377.161 543.198C366.133 543.198 355.552 547.562 347.731 555.337V555.337Z" fill="white"/>
</svg>
