<svg width="919" height="1336" viewBox="0 0 919 1336" fill="none" xmlns="http://www.w3.org/2000/svg">
<path d="M751.399 0H166.978C122.692 0 80.2208 17.5921 48.9065 48.9065C17.5921 80.2208 0 122.692 0 166.978V1168.84C0 1213.13 17.5921 1255.6 48.9065 1286.91C80.2208 1318.23 122.692 1335.82 166.978 1335.82H751.399C795.684 1335.82 838.155 1318.23 869.47 1286.91C900.784 1255.6 918.376 1213.13 918.376 1168.84V166.978C918.376 122.692 900.784 80.2208 869.47 48.9065C838.155 17.5921 795.684 0 751.399 0ZM834.888 1168.84C834.888 1190.99 826.091 1212.22 810.434 1227.88C794.777 1243.54 773.541 1252.33 751.399 1252.33H166.978C144.835 1252.33 123.599 1243.54 107.942 1227.88C92.2848 1212.22 83.4888 1190.99 83.4888 1168.84V166.978C83.4888 144.835 92.2848 123.599 107.942 107.942C123.599 92.2848 144.835 83.4888 166.978 83.4888H751.399C773.541 83.4888 794.777 92.2848 810.434 107.942C826.091 123.599 834.888 144.835 834.888 166.978V1168.84Z" fill="white"/>
<path d="M751.399 250.465H166.978C155.906 250.465 145.289 254.863 137.461 262.691C129.632 270.52 125.233 281.138 125.233 292.209C125.233 303.281 129.632 313.898 137.461 321.727C145.289 329.556 155.906 333.954 166.978 333.954H751.399C762.47 333.954 773.088 329.556 780.916 321.727C788.745 313.898 793.143 303.281 793.143 292.209C793.143 281.138 788.745 270.52 780.916 262.691C773.088 254.863 762.47 250.465 751.399 250.465Z" fill="white"/>
<path d="M751.399 960.115H166.978C155.906 960.115 145.289 964.513 137.461 972.342C129.632 980.17 125.233 990.788 125.233 1001.86C125.233 1012.93 129.632 1023.55 137.461 1031.38C145.289 1039.21 155.906 1043.6 166.978 1043.6H751.399C762.47 1043.6 773.088 1039.21 780.916 1031.38C788.745 1023.55 793.143 1012.93 793.143 1001.86C793.143 990.788 788.745 980.17 780.916 972.342C773.088 964.513 762.47 960.115 751.399 960.115Z" fill="white"/>
<path d="M375.7 208.721H542.677C553.749 208.721 564.366 204.323 572.195 196.495C580.023 188.666 584.422 178.048 584.422 166.977C584.422 155.906 580.023 145.288 572.195 137.459C564.366 129.63 553.749 125.232 542.677 125.232H375.7C364.629 125.232 354.011 129.63 346.183 137.459C338.354 145.288 333.956 155.906 333.956 166.977C333.956 178.048 338.354 188.666 346.183 196.495C354.011 204.323 364.629 208.721 375.7 208.721Z" fill="white"/>
<path d="M459.188 1210.59C493.77 1210.59 521.804 1182.56 521.804 1147.97C521.804 1113.39 493.77 1085.36 459.188 1085.36C424.606 1085.36 396.571 1113.39 396.571 1147.97C396.571 1182.56 424.606 1210.59 459.188 1210.59Z" fill="white"/>
</svg>
