<svg width="761" height="734" viewBox="0 0 761 734" fill="none" xmlns="http://www.w3.org/2000/svg">
<path d="M154.159 260.134L143.973 287H140.898L130.713 260.134H133.634L142.436 284.079L151.314 260.134H154.159ZM176.65 260.134V287H173.96V260.134H176.65ZM197.271 273.548C197.271 270.908 197.848 268.551 199.001 266.476C200.154 264.374 201.73 262.747 203.728 261.594C205.727 260.416 207.956 259.826 210.416 259.826C213.414 259.826 215.976 260.544 218.103 261.979C220.255 263.388 221.818 265.387 222.792 267.975H219.64C218.872 266.155 217.693 264.733 216.104 263.708C214.541 262.683 212.645 262.171 210.416 262.171C208.443 262.171 206.662 262.632 205.074 263.555C203.511 264.477 202.281 265.809 201.384 267.552C200.487 269.269 200.039 271.267 200.039 273.548C200.039 275.828 200.487 277.827 201.384 279.544C202.281 281.26 203.511 282.58 205.074 283.502C206.662 284.425 208.443 284.886 210.416 284.886C212.645 284.886 214.541 284.386 216.104 283.387C217.693 282.362 218.872 280.953 219.64 279.159H222.792C221.818 281.722 220.255 283.707 218.103 285.117C215.951 286.526 213.388 287.231 210.416 287.231C207.956 287.231 205.727 286.654 203.728 285.501C201.73 284.322 200.154 282.695 199.001 280.62C197.848 278.544 197.271 276.187 197.271 273.548ZM259.632 260.134V262.363H252.175V287H249.485V262.363H241.99V260.134H259.632ZM291.707 287.269C289.222 287.269 286.967 286.693 284.942 285.539C282.918 284.361 281.317 282.734 280.138 280.658C278.985 278.557 278.409 276.187 278.409 273.548C278.409 270.908 278.985 268.551 280.138 266.476C281.317 264.374 282.918 262.747 284.942 261.594C286.967 260.416 289.222 259.826 291.707 259.826C294.218 259.826 296.486 260.416 298.51 261.594C300.534 262.747 302.123 264.374 303.276 266.476C304.429 268.551 305.006 270.908 305.006 273.548C305.006 276.187 304.429 278.557 303.276 280.658C302.123 282.734 300.534 284.361 298.51 285.539C296.486 286.693 294.218 287.269 291.707 287.269ZM291.707 284.924C293.706 284.924 295.499 284.463 297.088 283.541C298.677 282.618 299.932 281.299 300.855 279.582C301.777 277.84 302.238 275.828 302.238 273.548C302.238 271.267 301.777 269.269 300.855 267.552C299.932 265.835 298.677 264.515 297.088 263.593C295.499 262.671 293.706 262.209 291.707 262.209C289.708 262.209 287.915 262.671 286.326 263.593C284.738 264.515 283.482 265.835 282.56 267.552C281.637 269.269 281.176 271.267 281.176 273.548C281.176 275.828 281.637 277.84 282.56 279.582C283.482 281.299 284.738 282.618 286.326 283.541C287.915 284.463 289.708 284.924 291.707 284.924ZM339.985 287L333.336 275.777H328.378V287H325.687V260.134H333.759C336.756 260.134 339.024 260.851 340.562 262.286C342.125 263.721 342.906 265.604 342.906 267.936C342.906 269.884 342.342 271.549 341.215 272.933C340.113 274.291 338.473 275.175 336.295 275.585L343.214 287H339.985ZM328.378 273.586H333.797C335.898 273.586 337.474 273.074 338.524 272.049C339.601 271.024 340.139 269.653 340.139 267.936C340.139 266.168 339.626 264.81 338.601 263.862C337.576 262.888 335.962 262.401 333.759 262.401H328.378V273.586ZM404.607 287L397.958 275.777H393V287H390.309V260.134H398.381C401.379 260.134 403.646 260.851 405.184 262.286C406.747 263.721 407.528 265.604 407.528 267.936C407.528 269.884 406.965 271.549 405.837 272.933C404.735 274.291 403.095 275.175 400.917 275.585L407.836 287H404.607ZM393 273.586H398.419C400.52 273.586 402.096 273.074 403.147 272.049C404.223 271.024 404.761 269.653 404.761 267.936C404.761 266.168 404.248 264.81 403.224 263.862C402.199 262.888 400.584 262.401 398.381 262.401H393V273.586ZM431.201 260.134V277.045C431.201 279.71 431.829 281.683 433.084 282.964C434.366 284.245 436.108 284.886 438.312 284.886C440.515 284.886 442.232 284.258 443.462 283.003C444.717 281.722 445.345 279.736 445.345 277.045V260.134H448.036V277.007C448.036 280.415 447.126 282.977 445.307 284.694C443.513 286.411 441.169 287.269 438.273 287.269C435.378 287.269 433.02 286.411 431.201 284.694C429.407 282.977 428.511 280.415 428.511 277.007V260.134H431.201ZM482.363 273.125C483.875 273.407 485.156 274.175 486.207 275.431C487.257 276.687 487.783 278.147 487.783 279.813C487.783 281.171 487.437 282.401 486.745 283.502C486.079 284.579 485.092 285.437 483.786 286.078C482.479 286.693 480.916 287 479.096 287H469.795V260.134H478.827C481.543 260.134 483.606 260.762 485.015 262.017C486.45 263.273 487.168 264.9 487.168 266.898C487.168 268.564 486.719 269.922 485.823 270.973C484.926 271.997 483.773 272.715 482.363 273.125ZM472.486 272.01H478.75C480.57 272.01 481.966 271.587 482.94 270.742C483.939 269.871 484.439 268.679 484.439 267.167C484.439 265.681 483.939 264.515 482.94 263.67C481.966 262.824 480.531 262.401 478.635 262.401H472.486V272.01ZM478.904 284.732C480.852 284.732 482.363 284.271 483.44 283.349C484.541 282.426 485.092 281.158 485.092 279.544C485.092 277.929 484.516 276.648 483.363 275.7C482.235 274.726 480.711 274.24 478.789 274.24H472.486V284.732H478.904ZM511.178 260.134V287H508.487V260.134H511.178ZM531.799 273.548C531.799 270.908 532.375 268.551 533.528 266.476C534.681 264.374 536.257 262.747 538.256 261.594C540.254 260.416 542.484 259.826 544.943 259.826C547.941 259.826 550.504 260.544 552.631 261.979C554.783 263.388 556.346 265.387 557.32 267.975H554.168C553.399 266.155 552.221 264.733 550.632 263.708C549.069 262.683 547.173 262.171 544.943 262.171C542.97 262.171 541.19 262.632 539.601 263.555C538.038 264.477 536.808 265.809 535.911 267.552C535.014 269.269 534.566 271.267 534.566 273.548C534.566 275.828 535.014 277.827 535.911 279.544C536.808 281.26 538.038 282.58 539.601 283.502C541.19 284.425 542.97 284.886 544.943 284.886C547.173 284.886 549.069 284.386 550.632 283.387C552.221 282.362 553.399 280.953 554.168 279.159H557.32C556.346 281.722 554.783 283.707 552.631 285.117C550.478 286.526 547.916 287.231 544.943 287.231C542.484 287.231 540.254 286.654 538.256 285.501C536.257 284.322 534.681 282.695 533.528 280.62C532.375 278.544 531.799 276.187 531.799 273.548ZM592.775 287L581.13 274.585V287H578.439V260.134H581.13V272.702L592.775 260.134H596.196L583.628 273.548L596.312 287H592.775Z" fill="#DFDFDF"/>
<path d="M70.7552 329.544C70.7552 334.306 69.6391 338.659 67.4069 342.602C65.2492 346.471 61.9381 349.596 57.4738 351.977C53.0839 354.284 47.6895 355.437 41.2906 355.437L32 355.5V734H0V303.316H41.2906C47.6151 303.316 52.9723 304.432 57.3622 306.664C61.8265 308.897 65.1748 311.984 67.4069 315.928C69.6391 319.871 70.7552 324.41 70.7552 329.544ZM39.17 338.026C45.3457 338.026 48.4335 335.199 48.4335 329.544C48.4335 323.815 45.3457 320.95 39.17 320.95H30.4646V338.026H39.17Z" fill="#DFDFDF"/>
<path d="M134.008 382.781C126.642 382.781 119.871 381.07 113.696 377.647C107.52 374.15 102.609 369.351 98.9633 363.25C95.3918 357.074 93.6061 350.117 93.6061 342.379C93.6061 334.641 95.3918 327.721 98.9633 321.62C102.609 315.444 107.52 310.645 113.696 307.222C119.871 303.8 126.642 302.088 134.008 302.088C141.449 302.088 148.22 303.8 154.321 307.222C160.497 310.645 165.37 315.444 168.942 321.62C172.513 327.721 174.299 334.641 174.299 342.379C174.299 350.117 172.513 357.074 168.942 363.25C165.37 369.351 160.497 374.15 154.321 377.647C148.145 381.07 141.374 382.781 134.008 382.781ZM134.008 362.469C139.589 362.469 143.979 360.646 147.178 357C150.452 353.354 152.089 348.48 152.089 342.379C152.089 336.129 150.452 331.218 147.178 327.647C143.979 324.001 139.589 322.178 134.008 322.178C128.353 322.178 123.926 324.001 120.727 327.647C117.527 331.218 115.928 336.129 115.928 342.379C115.928 348.555 117.527 353.465 120.727 357.111C123.926 360.683 128.353 362.469 134.008 362.469Z" fill="#DFDFDF"/>
<path d="M240.718 382L225.093 352.982H222.749V382H200.874V303.316H235.361C241.685 303.316 247.042 304.432 251.432 306.664C255.822 308.822 259.133 311.836 261.366 315.705C263.598 319.499 264.714 323.778 264.714 328.54C264.714 333.897 263.226 338.622 260.249 342.714C257.348 346.732 253.069 349.596 247.414 351.308L265.16 382H240.718ZM222.749 338.026H233.575C236.551 338.026 238.783 337.319 240.272 335.906C241.76 334.492 242.504 332.446 242.504 329.767C242.504 327.238 241.722 325.266 240.16 323.852C238.672 322.364 236.477 321.62 233.575 321.62H222.749V338.026Z" fill="#DFDFDF"/>
<path d="M350.667 303.316V320.727H329.685V382H307.809V320.727H287.05V303.316H350.667Z" fill="#DFDFDF"/>
<path d="M428.85 303.316V320.727H397.377V334.566H420.591V351.196H397.377V382H375.502V303.316H428.85Z" fill="#DFDFDF"/>
<path d="M492.528 382.781C485.162 382.781 478.391 381.07 472.215 377.647C466.04 374.15 461.129 369.351 457.483 363.25C453.912 357.074 452.126 350.117 452.126 342.379C452.126 334.641 453.912 327.721 457.483 321.62C461.129 315.444 466.04 310.645 472.215 307.222C478.391 303.8 485.162 302.088 492.528 302.088C499.969 302.088 506.74 303.8 512.841 307.222C519.016 310.645 523.89 315.444 527.461 321.62C531.033 327.721 532.819 334.641 532.819 342.379C532.819 350.117 531.033 357.074 527.461 363.25C523.89 369.351 519.016 374.15 512.841 377.647C506.665 381.07 499.894 382.781 492.528 382.781ZM492.528 362.469C498.109 362.469 502.498 360.646 505.698 357C508.972 353.354 510.609 348.48 510.609 342.379C510.609 336.129 508.972 331.218 505.698 327.647C502.498 324.001 498.109 322.178 492.528 322.178C486.873 322.178 482.446 324.001 479.247 327.647C476.047 331.218 474.448 336.129 474.448 342.379C474.448 348.555 476.047 353.465 479.247 357.111C482.446 360.683 486.873 362.469 492.528 362.469Z" fill="#DFDFDF"/>
<path d="M581.269 365.259H605.711V382H559.394V303.316H581.269V365.259Z" fill="#DFDFDF"/>
<path d="M662 0V382H630V0H662Z" fill="#DFDFDF"/>
<path d="M719.756 382.781C712.389 382.781 705.619 381.07 699.443 377.647C693.267 374.15 688.356 369.351 684.711 363.25C681.139 357.074 679.353 350.117 679.353 342.379C679.353 334.641 681.139 327.721 684.711 321.62C688.356 315.444 693.267 310.645 699.443 307.222C705.619 303.8 712.389 302.088 719.756 302.088C727.196 302.088 733.967 303.8 740.068 307.222C746.244 310.645 751.118 315.444 754.689 321.62C758.26 327.721 760.046 334.641 760.046 342.379C760.046 350.117 758.26 357.074 754.689 363.25C751.118 369.351 746.244 374.15 740.068 377.647C733.893 381.07 727.122 382.781 719.756 382.781ZM719.756 362.469C725.336 362.469 729.726 360.646 732.925 357C736.199 353.354 737.836 348.48 737.836 342.379C737.836 336.129 736.199 331.218 732.925 327.647C729.726 324.001 725.336 322.178 719.756 322.178C714.101 322.178 709.674 324.001 706.474 327.647C703.275 331.218 701.675 336.129 701.675 342.379C701.675 348.555 703.275 353.465 706.474 357.111C709.674 360.683 714.101 362.469 719.756 362.469Z" fill="#DFDFDF"/>
</svg>
